<svg width="2569" height="1459" viewBox="0 0 2569 1459" fill="none" xmlns="http://www.w3.org/2000/svg">
<g clip-path="url(#clip0)">
<rect width="2569" height="1459" fill="url(#paint0_linear)"/>
<rect x="38.8484" y="1117.81" width="78" height="349.259" transform="rotate(0.284964 38.8484 1117.81)" fill="#282B44"/>
<rect x="45.1967" y="1369.19" width="8.52883" height="17.0152" transform="rotate(0.284964 45.1967 1369.19)" fill="#E5D85A"/>
<rect x="72.3751" y="1360.97" width="8.52882" height="17.0152" transform="rotate(0.284964 72.3751 1360.97)" fill="#E5D85A"/>
<rect x="97.5665" y="1378.11" width="8.52884" height="17.0152" transform="rotate(0.284964 97.5665 1378.11)" fill="#E5D85A"/>
<rect x="57.8491" y="1413.13" width="8.52883" height="17.0152" transform="rotate(0.284964 57.8491 1413.13)" fill="#E5D85A"/>
<rect x="54.5702" y="1199.38" width="8.52883" height="17.0152" transform="rotate(0.284964 54.5702 1199.38)" fill="#E5D85A"/>
<rect x="86.2173" y="1196.85" width="8.52883" height="17.0152" transform="rotate(0.284964 86.2173 1196.85)" fill="#E5D85A"/>
<rect x="45.7935" y="1249.19" width="8.52883" height="17.0152" transform="rotate(0.284964 45.7935 1249.19)" fill="#E5D85A"/>
<rect x="72.9289" y="1249.62" width="8.52882" height="17.0152" transform="rotate(0.284964 72.9289 1249.62)" fill="#E5D85A"/>
<rect x="96.3456" y="1249.44" width="8.52883" height="17.0152" transform="rotate(0.284964 96.3456 1249.44)" fill="#E5D85A"/>
<rect x="55.7177" y="1311.63" width="8.52883" height="17.0152" transform="rotate(0.284964 55.7177 1311.63)" fill="#E5D85A"/>
<rect x="87.5066" y="1311.79" width="8.52883" height="17.0152" transform="rotate(0.284964 87.5066 1311.79)" fill="#E5D85A"/>
<rect x="73.4441" y="1146.04" width="8.52882" height="17.0152" transform="rotate(0.284964 73.4441 1146.04)" fill="#E5D85A"/>
<rect x="96.8593" y="1146.16" width="8.52883" height="17.0152" transform="rotate(0.284964 96.8593 1146.16)" fill="#E5D85A"/>
<rect x="46.3072" y="1145.91" width="8.52883" height="17.0152" transform="rotate(0.284964 46.3072 1145.91)" fill="#E5D85A"/>
<rect x="118.31" y="1194.65" width="70.6911" height="277.664" transform="rotate(0.284964 118.31 1194.65)" fill="#282B44"/>
<rect x="124.202" y="1394.5" width="7.72964" height="13.5272" transform="rotate(0.284964 124.202 1394.5)" fill="#E5D85A"/>
<rect x="148.829" y="1387.98" width="7.72964" height="13.5272" transform="rotate(0.284964 148.829 1387.98)" fill="#E5D85A"/>
<rect x="171.67" y="1401.62" width="7.72965" height="13.5272" transform="rotate(0.284964 171.67 1401.62)" fill="#E5D85A"/>
<rect x="135.693" y="1429.45" width="7.72964" height="13.5272" transform="rotate(0.284964 135.693 1429.45)" fill="#E5D85A"/>
<rect x="132.603" y="1259.51" width="7.72964" height="13.5272" transform="rotate(0.284964 132.603 1259.51)" fill="#E5D85A"/>
<rect x="161.284" y="1257.52" width="7.72964" height="13.5272" transform="rotate(0.284964 161.284 1257.52)" fill="#E5D85A"/>
<rect x="124.677" y="1299.1" width="7.72964" height="13.5272" transform="rotate(0.284964 124.677 1299.1)" fill="#E5D85A"/>
<rect x="149.27" y="1299.46" width="7.72964" height="13.5272" transform="rotate(0.284964 149.27 1299.46)" fill="#E5D85A"/>
<rect x="170.492" y="1299.33" width="7.72964" height="13.5272" transform="rotate(0.284964 170.492 1299.33)" fill="#E5D85A"/>
<rect x="133.706" y="1348.75" width="7.72964" height="13.5272" transform="rotate(0.284964 133.706 1348.75)" fill="#E5D85A"/>
<rect x="162.516" y="1348.89" width="7.72964" height="13.5272" transform="rotate(0.284964 162.516 1348.89)" fill="#E5D85A"/>
<rect x="149.679" y="1217.11" width="7.72964" height="13.5272" transform="rotate(0.284964 149.679 1217.11)" fill="#E5D85A"/>
<rect x="170.9" y="1217.22" width="7.72964" height="13.5272" transform="rotate(0.284964 170.9 1217.22)" fill="#E5D85A"/>
<rect x="125.085" y="1216.99" width="7.72964" height="13.5272" transform="rotate(0.284964 125.085 1216.99)" fill="#E5D85A"/>
<rect x="251.337" y="989" width="78" height="481.551" transform="rotate(0.284964 251.337 989)" fill="#282B44"/>
<rect x="257.211" y="1335.59" width="8.52883" height="23.4602" transform="rotate(0.284964 257.211 1335.59)" fill="#E5D85A"/>
<rect x="284.405" y="1324.2" width="8.52882" height="23.4601" transform="rotate(0.284964 284.405 1324.2)" fill="#E5D85A"/>
<rect x="309.565" y="1347.78" width="8.52884" height="23.4602" transform="rotate(0.284964 309.565 1347.78)" fill="#E5D85A"/>
<rect x="269.781" y="1396.15" width="8.52883" height="23.4602" transform="rotate(0.284964 269.781 1396.15)" fill="#E5D85A"/>
<rect x="266.905" y="1101.44" width="8.52883" height="23.4602" transform="rotate(0.284964 266.905 1101.44)" fill="#E5D85A"/>
<rect x="298.557" y="1097.89" width="8.52883" height="23.4602" transform="rotate(0.284964 298.557 1097.89)" fill="#E5D85A"/>
<rect x="258.034" y="1170.13" width="8.52883" height="23.4602" transform="rotate(0.284964 258.034 1170.13)" fill="#E5D85A"/>
<rect x="285.169" y="1170.68" width="8.52882" height="23.4602" transform="rotate(0.284964 285.169 1170.68)" fill="#E5D85A"/>
<rect x="308.586" y="1170.38" width="8.52883" height="23.4602" transform="rotate(0.284964 308.586 1170.38)" fill="#E5D85A"/>
<rect x="267.841" y="1256.2" width="8.52883" height="23.4602" transform="rotate(0.284964 267.841 1256.2)" fill="#E5D85A"/>
<rect x="299.63" y="1256.36" width="8.52883" height="23.4602" transform="rotate(0.284964 299.63 1256.36)" fill="#E5D85A"/>
<rect x="285.879" y="1027.86" width="8.52882" height="23.4602" transform="rotate(0.284964 285.879 1027.86)" fill="#E5D85A"/>
<rect x="309.294" y="1027.98" width="8.52883" height="23.4602" transform="rotate(0.284964 309.294 1027.98)" fill="#E5D85A"/>
<rect x="258.742" y="1027.73" width="8.52883" height="23.4602" transform="rotate(0.284964 258.742 1027.73)" fill="#E5D85A"/>
<rect x="335.279" y="1215" width="81.5116" height="257.236" transform="rotate(0.284964 335.279 1215)" fill="#282B44"/>
<rect x="342.299" y="1400.16" width="8.9128" height="12.532" transform="rotate(0.284964 342.299 1400.16)" fill="#E5D85A"/>
<rect x="370.688" y="1394.14" width="8.9128" height="12.532" transform="rotate(0.284964 370.688 1394.14)" fill="#E5D85A"/>
<rect x="397.04" y="1406.81" width="8.91281" height="12.532" transform="rotate(0.284964 397.04 1406.81)" fill="#E5D85A"/>
<rect x="355.588" y="1432.55" width="8.9128" height="12.532" transform="rotate(0.284964 355.588 1432.55)" fill="#E5D85A"/>
<rect x="351.834" y="1275.1" width="8.9128" height="12.532" transform="rotate(0.284964 351.834 1275.1)" fill="#E5D85A"/>
<rect x="384.902" y="1273.29" width="8.9128" height="12.532" transform="rotate(0.284964 384.902 1273.29)" fill="#E5D85A"/>
<rect x="342.739" y="1311.78" width="8.9128" height="12.532" transform="rotate(0.284964 342.739 1311.78)" fill="#E5D85A"/>
<rect x="371.096" y="1312.14" width="8.91279" height="12.532" transform="rotate(0.284964 371.096 1312.14)" fill="#E5D85A"/>
<rect x="395.567" y="1312.04" width="8.9128" height="12.532" transform="rotate(0.284964 395.567 1312.04)" fill="#E5D85A"/>
<rect x="353.205" y="1357.78" width="8.9128" height="12.532" transform="rotate(0.284964 353.205 1357.78)" fill="#E5D85A"/>
<rect x="386.425" y="1357.95" width="8.9128" height="12.532" transform="rotate(0.284964 386.425 1357.95)" fill="#E5D85A"/>
<rect x="371.476" y="1235.85" width="8.91279" height="12.532" transform="rotate(0.284964 371.476 1235.85)" fill="#E5D85A"/>
<rect x="395.945" y="1235.97" width="8.9128" height="12.532" transform="rotate(0.284964 395.945 1235.97)" fill="#E5D85A"/>
<rect x="343.117" y="1235.71" width="8.9128" height="12.532" transform="rotate(0.284964 343.117 1235.71)" fill="#E5D85A"/>
<rect x="2477.17" y="1026" width="78" height="441.036" transform="rotate(0.284964 2477.17 1026)" fill="#282B44"/>
<rect x="2483.19" y="1343.43" width="8.52883" height="21.4864" transform="rotate(0.284964 2483.19 1343.43)" fill="#E5D85A"/>
<rect x="2510.37" y="1333.01" width="8.52882" height="21.4864" transform="rotate(0.284964 2510.37 1333.01)" fill="#E5D85A"/>
<rect x="2535.54" y="1354.62" width="8.52884" height="21.4864" transform="rotate(0.284964 2535.54 1354.62)" fill="#E5D85A"/>
<rect x="2495.78" y="1398.9" width="8.52883" height="21.4864" transform="rotate(0.284964 2495.78 1398.9)" fill="#E5D85A"/>
<rect x="2492.78" y="1128.99" width="8.52883" height="21.4864" transform="rotate(0.284964 2492.78 1128.99)" fill="#E5D85A"/>
<rect x="2524.43" y="1125.75" width="8.52883" height="21.4864" transform="rotate(0.284964 2524.43 1125.75)" fill="#E5D85A"/>
<rect x="2483.94" y="1191.9" width="8.52883" height="21.4864" transform="rotate(0.284964 2483.94 1191.9)" fill="#E5D85A"/>
<rect x="2511.07" y="1192.41" width="8.52882" height="21.4864" transform="rotate(0.284964 2511.07 1192.41)" fill="#E5D85A"/>
<rect x="2534.49" y="1192.15" width="8.52883" height="21.4864" transform="rotate(0.284964 2534.49 1192.15)" fill="#E5D85A"/>
<rect x="2493.78" y="1270.73" width="8.52883" height="21.4864" transform="rotate(0.284964 2493.78 1270.73)" fill="#E5D85A"/>
<rect x="2525.57" y="1270.89" width="8.52883" height="21.4863" transform="rotate(0.284964 2525.57 1270.89)" fill="#E5D85A"/>
<rect x="2511.72" y="1061.61" width="8.52882" height="21.4864" transform="rotate(0.284964 2511.72 1061.61)" fill="#E5D85A"/>
<rect x="2535.14" y="1061.72" width="8.52883" height="21.4864" transform="rotate(0.284964 2535.14 1061.72)" fill="#E5D85A"/>
<rect x="2484.59" y="1061.47" width="8.52883" height="21.4864" transform="rotate(0.284964 2484.59 1061.47)" fill="#E5D85A"/>
<rect x="2380.48" y="1163" width="78" height="300.536" transform="rotate(0.284964 2380.48 1163)" fill="#282B44"/>
<rect x="2387" y="1379.32" width="8.52883" height="14.6415" transform="rotate(0.284964 2387 1379.32)" fill="#E5D85A"/>
<rect x="2414.17" y="1372.26" width="8.52882" height="14.6415" transform="rotate(0.284964 2414.17 1372.26)" fill="#E5D85A"/>
<rect x="2439.38" y="1387.03" width="8.52884" height="14.6415" transform="rotate(0.284964 2439.38 1387.03)" fill="#E5D85A"/>
<rect x="2399.68" y="1417.14" width="8.52883" height="14.6415" transform="rotate(0.284964 2399.68 1417.14)" fill="#E5D85A"/>
<rect x="2396.26" y="1233.2" width="8.52883" height="14.6415" transform="rotate(0.284964 2396.26 1233.2)" fill="#E5D85A"/>
<rect x="2427.9" y="1231.05" width="8.52883" height="14.6415" transform="rotate(0.284964 2427.9 1231.05)" fill="#E5D85A"/>
<rect x="2387.52" y="1276.06" width="8.52883" height="14.6415" transform="rotate(0.284964 2387.52 1276.06)" fill="#E5D85A"/>
<rect x="2414.65" y="1276.45" width="8.52882" height="14.6415" transform="rotate(0.284964 2414.65 1276.45)" fill="#E5D85A"/>
<rect x="2438.07" y="1276.31" width="8.52883" height="14.6415" transform="rotate(0.284964 2438.07 1276.31)" fill="#E5D85A"/>
<rect x="2397.48" y="1329.79" width="8.52883" height="14.6415" transform="rotate(0.284964 2397.48 1329.79)" fill="#E5D85A"/>
<rect x="2429.27" y="1329.95" width="8.52883" height="14.6415" transform="rotate(0.284964 2429.27 1329.95)" fill="#E5D85A"/>
<rect x="2415.09" y="1187.32" width="8.52882" height="14.6415" transform="rotate(0.284964 2415.09 1187.32)" fill="#E5D85A"/>
<rect x="2438.51" y="1187.43" width="8.52883" height="14.6415" transform="rotate(0.284964 2438.51 1187.43)" fill="#E5D85A"/>
<rect x="2387.96" y="1187.18" width="8.52883" height="14.6415" transform="rotate(0.284964 2387.96 1187.18)" fill="#E5D85A"/>
<rect x="417.5" y="964.5" width="99" height="492" fill="#E5D85A" stroke="black" stroke-width="11"/>
<rect x="412" y="979" width="109.225" height="23" fill="#282B44"/>
<rect x="412.775" y="1017" width="109.225" height="23" fill="#282B44"/>
<rect x="413" y="1055" width="109.225" height="23" fill="#282B44"/>
<rect x="413" y="1017" width="109" height="23" fill="#282B44"/>
<rect x="413" y="1093" width="109.225" height="23" fill="#282B44"/>
<rect x="413" y="1131" width="109.225" height="23" fill="#282B44"/>
<rect x="413" y="1169" width="109.225" height="23" fill="#282B44"/>
<rect x="413" y="1207" width="109.225" height="23" fill="#282B44"/>
<rect x="413" y="1359" width="109.225" height="23" fill="#282B44"/>
<rect x="413" y="1245" width="109.225" height="23" fill="#282B44"/>
<rect x="413" y="1397" width="109.225" height="23" fill="#282B44"/>
<rect x="413" y="1245" width="109.225" height="23" fill="#282B44"/>
<rect x="413" y="1283" width="109.225" height="23" fill="#282B44"/>
<rect x="413" y="1321" width="109.225" height="23" fill="#282B44"/>
<rect x="413" y="1435" width="109.225" height="23" fill="#282B44"/>
<rect x="2267.5" y="1045.5" width="73" height="411.48" fill="#E5D85A" stroke="black" stroke-width="11"/>
<rect x="2262" y="1056.8" width="83.4085" height="19.3182" fill="#282B44"/>
<rect x="2262.59" y="1088.72" width="83.4084" height="19.3182" fill="#282B44"/>
<rect x="2262.76" y="1120.63" width="83.4085" height="19.3182" fill="#282B44"/>
<rect x="2262.76" y="1088.72" width="83.2364" height="19.3182" fill="#282B44"/>
<rect x="2262.76" y="1152.55" width="83.4085" height="19.3182" fill="#282B44"/>
<rect x="2262.76" y="1184.47" width="83.4084" height="19.3182" fill="#282B44"/>
<rect x="2262.76" y="1216.38" width="83.4085" height="19.3182" fill="#282B44"/>
<rect x="2262.76" y="1248.3" width="83.4084" height="19.3182" fill="#282B44"/>
<rect x="2262.76" y="1375.97" width="83.4084" height="19.3182" fill="#282B44"/>
<rect x="2262.76" y="1280.22" width="83.4084" height="19.3182" fill="#282B44"/>
<rect x="2262.76" y="1407.89" width="83.4084" height="19.3182" fill="#282B44"/>
<rect x="2262.76" y="1280.22" width="83.4084" height="19.3182" fill="#282B44"/>
<rect x="2262.76" y="1312.13" width="83.4085" height="19.3182" fill="#282B44"/>
<rect x="2262.76" y="1344.05" width="83.4084" height="19.3182" fill="#282B44"/>
<rect x="2262.76" y="1439.8" width="83.4084" height="19.3182" fill="#282B44"/>
<rect x="561" y="986.37" width="151" height="473.63" fill="#282B44"/>
<rect x="612.561" y="1297.04" width="15.9594" height="18.7577" fill="#E5D85A"/>
<rect x="580.642" y="1297.04" width="15.9594" height="18.7577" fill="#E5D85A"/>
<rect x="644.48" y="1297.04" width="15.9594" height="18.7577" fill="#E5D85A"/>
<rect x="676.398" y="1297.04" width="15.9594" height="18.7577" fill="#E5D85A"/>
<rect x="612.561" y="1327.52" width="15.9594" height="18.7576" fill="#E5D85A"/>
<rect x="580.642" y="1327.52" width="15.9594" height="18.7576" fill="#E5D85A"/>
<rect x="644.48" y="1327.52" width="15.9594" height="18.7576" fill="#E5D85A"/>
<rect x="676.398" y="1327.52" width="15.9594" height="18.7576" fill="#E5D85A"/>
<rect x="612.561" y="1360.35" width="15.9594" height="18.7575" fill="#E5D85A"/>
<rect x="580.642" y="1360.35" width="15.9594" height="18.7575" fill="#E5D85A"/>
<rect x="644.48" y="1360.35" width="15.9594" height="18.7575" fill="#E5D85A"/>
<rect x="676.398" y="1360.35" width="15.9594" height="18.7575" fill="#E5D85A"/>
<rect x="612.561" y="1396.69" width="15.9594" height="18.7575" fill="#E5D85A"/>
<rect x="580.642" y="1396.69" width="15.9594" height="18.7575" fill="#E5D85A"/>
<rect x="644.48" y="1396.69" width="15.9594" height="18.7575" fill="#E5D85A"/>
<rect x="676.398" y="1396.69" width="15.9594" height="18.7575" fill="#E5D85A"/>
<rect x="612.561" y="1428.35" width="15.9594" height="18.7576" fill="#E5D85A"/>
<rect x="580.642" y="1428.35" width="15.9594" height="18.7576" fill="#E5D85A"/>
<rect x="644.48" y="1428.35" width="15.9594" height="18.7576" fill="#E5D85A"/>
<rect x="676.398" y="1428.35" width="15.9594" height="18.7576" fill="#E5D85A"/>
<rect x="613.789" y="1098.92" width="15.9594" height="18.7577" fill="#E5D85A"/>
<rect x="581.87" y="1098.92" width="15.9594" height="18.7577" fill="#E5D85A"/>
<rect x="645.707" y="1098.92" width="15.9594" height="18.7577" fill="#E5D85A"/>
<rect x="677.626" y="1098.92" width="15.9594" height="18.7577" fill="#E5D85A"/>
<rect x="613.789" y="1131.74" width="15.9594" height="18.7576" fill="#E5D85A"/>
<rect x="581.87" y="1131.74" width="15.9594" height="18.7576" fill="#E5D85A"/>
<rect x="645.707" y="1131.74" width="15.9594" height="18.7576" fill="#E5D85A"/>
<rect x="677.626" y="1131.74" width="15.9594" height="18.7576" fill="#E5D85A"/>
<rect x="613.789" y="1165.74" width="15.9594" height="18.7576" fill="#E5D85A"/>
<rect x="581.87" y="1165.74" width="15.9594" height="18.7576" fill="#E5D85A"/>
<rect x="645.707" y="1165.74" width="15.9594" height="18.7576" fill="#E5D85A"/>
<rect x="677.626" y="1165.74" width="15.9594" height="18.7576" fill="#E5D85A"/>
<rect x="612.561" y="1198.57" width="15.9594" height="18.7576" fill="#E5D85A"/>
<rect x="580.642" y="1198.57" width="15.9594" height="18.7576" fill="#E5D85A"/>
<rect x="644.48" y="1198.57" width="15.9594" height="18.7576" fill="#E5D85A"/>
<rect x="676.398" y="1198.57" width="15.9594" height="18.7576" fill="#E5D85A"/>
<rect x="612.561" y="1232.56" width="15.9594" height="18.7576" fill="#E5D85A"/>
<rect x="580.642" y="1232.56" width="15.9594" height="18.7576" fill="#E5D85A"/>
<rect x="644.48" y="1232.56" width="15.9594" height="18.7576" fill="#E5D85A"/>
<rect x="676.398" y="1232.56" width="15.9594" height="18.7576" fill="#E5D85A"/>
<rect x="613.789" y="1264.22" width="15.9594" height="18.7577" fill="#E5D85A"/>
<rect x="581.87" y="1264.22" width="15.9594" height="18.7577" fill="#E5D85A"/>
<rect x="645.707" y="1264.22" width="15.9594" height="18.7577" fill="#E5D85A"/>
<rect x="677.626" y="1264.22" width="15.9594" height="18.7577" fill="#E5D85A"/>
<rect x="581.87" y="965.267" width="100.667" height="48.0664" fill="#282B44"/>
<rect x="626.065" y="807" width="12.2764" height="158.268" fill="#282B44"/>
<rect x="580.642" y="1026.23" width="15.9594" height="18.7576" fill="#E5D85A"/>
<rect x="612.561" y="1026.23" width="15.9594" height="18.7576" fill="#E5D85A"/>
<rect x="580.642" y="1026.23" width="15.9594" height="18.7576" fill="#E5D85A"/>
<rect x="644.48" y="1026.23" width="15.9594" height="18.7576" fill="#E5D85A"/>
<rect x="676.398" y="1026.23" width="15.9594" height="18.7576" fill="#E5D85A"/>
<rect x="613.789" y="1062.57" width="15.9594" height="18.7576" fill="#E5D85A"/>
<rect x="581.87" y="1062.57" width="15.9594" height="18.7576" fill="#E5D85A"/>
<rect x="645.707" y="1062.57" width="15.9594" height="18.7576" fill="#E5D85A"/>
<rect x="677.626" y="1062.57" width="15.9594" height="18.7576" fill="#E5D85A"/>
<path d="M712 1397H2090V1459H712V1397Z" fill="#282B44"/>
<path d="M2153 1002C2169 963.5 2224.5 960 2240 1002V1460H2153V1002Z" fill="#282B44"/>
<rect x="2173" y="1024" width="47" height="436" fill="#E5D85A"/>
<rect x="2191" y="989" width="12" height="483" fill="#282B44"/>
<rect x="2089.7" y="1185" width="78" height="290.632" transform="rotate(0.284964 2089.7 1185)" fill="#282B44"/>
<rect x="2096.25" y="1394.19" width="8.52883" height="14.159" transform="rotate(0.284964 2096.25 1394.19)" fill="#E5D85A"/>
<rect x="2123.43" y="1387.37" width="8.52882" height="14.159" transform="rotate(0.284964 2123.43 1387.37)" fill="#E5D85A"/>
<rect x="2148.63" y="1401.66" width="8.52884" height="14.159" transform="rotate(0.284964 2148.63 1401.66)" fill="#E5D85A"/>
<rect x="2108.94" y="1430.77" width="8.52883" height="14.159" transform="rotate(0.284964 2108.94 1430.77)" fill="#E5D85A"/>
<rect x="2105.49" y="1252.89" width="8.52883" height="14.159" transform="rotate(0.284964 2105.49 1252.89)" fill="#E5D85A"/>
<rect x="2137.13" y="1250.82" width="8.52883" height="14.159" transform="rotate(0.284964 2137.13 1250.82)" fill="#E5D85A"/>
<rect x="2096.75" y="1294.33" width="8.52883" height="14.159" transform="rotate(0.284964 2096.75 1294.33)" fill="#E5D85A"/>
<rect x="2123.89" y="1294.72" width="8.52882" height="14.159" transform="rotate(0.284964 2123.89 1294.72)" fill="#E5D85A"/>
<rect x="2147.3" y="1294.59" width="8.52883" height="14.159" transform="rotate(0.284964 2147.3 1294.59)" fill="#E5D85A"/>
<rect x="2106.73" y="1346.3" width="8.52883" height="14.159" transform="rotate(0.284964 2106.73 1346.3)" fill="#E5D85A"/>
<rect x="2138.52" y="1346.46" width="8.52883" height="14.159" transform="rotate(0.284964 2138.52 1346.46)" fill="#E5D85A"/>
<rect x="2124.32" y="1208.52" width="8.52882" height="14.159" transform="rotate(0.284964 2124.32 1208.52)" fill="#E5D85A"/>
<rect x="2147.73" y="1208.64" width="8.52883" height="14.159" transform="rotate(0.284964 2147.73 1208.64)" fill="#E5D85A"/>
<rect x="2097.18" y="1208.39" width="8.52883" height="14.159" transform="rotate(0.284964 2097.18 1208.39)" fill="#E5D85A"/>
<rect x="882" y="1352" width="42" height="50" fill="#282B44"/>
<rect x="1797" y="1329" width="67" height="80" fill="#282B44"/>
<rect x="924" y="1331" width="59" height="68" fill="#282B44"/>
<rect x="1936" y="1316" width="42" height="93" fill="#282B44"/>
<rect x="1285" y="1354" width="54" height="55" fill="#282B44"/>
<rect x="943" y="1347" width="11" height="17" fill="#E5D85A"/>
<rect x="963" y="1369" width="11" height="17" fill="#E5D85A"/>
<rect x="1299" y="1376" width="11" height="17" fill="#E5D85A"/>
<path d="M1318 1375H1329V1392H1318V1375Z" fill="#E5D85A"/>
<path d="M1815 1372H1826V1389H1815V1372Z" fill="#E5D85A"/>
<path d="M1843 1344H1854V1361H1843V1344Z" fill="#E5D85A"/>
<path d="M1957 1334H1968V1351H1957V1334Z" fill="#E5D85A"/>
<path d="M206.5 199L208.408 203.837H214.584L209.588 206.826L211.496 211.663L206.5 208.674L201.504 211.663L203.412 206.826L198.416 203.837H204.592L206.5 199Z" fill="#CCC04F" fill-opacity="0.6"/>
<path d="M206.5 199L208.408 203.837H214.584L209.588 206.826L211.496 211.663L206.5 208.674L201.504 211.663L203.412 206.826L198.416 203.837H204.592L206.5 199Z" fill="#CCC04F" fill-opacity="0.6"/>
<path d="M1010.08 407L1011.99 411.837H1018.17L1013.17 414.826L1015.08 419.663L1010.08 416.674L1005.09 419.663L1007 414.826L1002 411.837H1008.18L1010.08 407Z" fill="#CCC04F" fill-opacity="0.6"/>
<path d="M1010.08 407L1011.99 411.837H1018.17L1013.17 414.826L1015.08 419.663L1010.08 416.674L1005.09 419.663L1007 414.826L1002 411.837H1008.18L1010.08 407Z" fill="#CCC04F" fill-opacity="0.6"/>
<path d="M1717.08 400L1718.99 404.837H1725.17L1720.17 407.826L1722.08 412.663L1717.08 409.674L1712.09 412.663L1714 407.826L1709 404.837H1715.18L1717.08 400Z" fill="#CCC04F" fill-opacity="0.6"/>
<path d="M1717.08 400L1718.99 404.837H1725.17L1720.17 407.826L1722.08 412.663L1717.08 409.674L1712.09 412.663L1714 407.826L1709 404.837H1715.18L1717.08 400Z" fill="#CCC04F" fill-opacity="0.6"/>
<path d="M1401.08 339L1402.99 343.837H1409.17L1404.17 346.826L1406.08 351.663L1401.08 348.674L1396.09 351.663L1398 346.826L1393 343.837H1399.18L1401.08 339Z" fill="#CCC04F" fill-opacity="0.6"/>
<path d="M1401.08 339L1402.99 343.837H1409.17L1404.17 346.826L1406.08 351.663L1401.08 348.674L1396.09 351.663L1398 346.826L1393 343.837H1399.18L1401.08 339Z" fill="#CCC04F" fill-opacity="0.6"/>
<path d="M1928.08 144L1929.99 148.837H1936.17L1931.17 151.826L1933.08 156.663L1928.08 153.674L1923.09 156.663L1925 151.826L1920 148.837H1926.18L1928.08 144Z" fill="#CCC04F" fill-opacity="0.6"/>
<path d="M1928.08 144L1929.99 148.837H1936.17L1931.17 151.826L1933.08 156.663L1928.08 153.674L1923.09 156.663L1925 151.826L1920 148.837H1926.18L1928.08 144Z" fill="#CCC04F" fill-opacity="0.6"/>
<path d="M2212.08 290L2213.99 294.837H2220.17L2215.17 297.826L2217.08 302.663L2212.08 299.674L2207.09 302.663L2209 297.826L2204 294.837H2210.18L2212.08 290Z" fill="#CCC04F" fill-opacity="0.6"/>
<path d="M2212.08 290L2213.99 294.837H2220.17L2215.17 297.826L2217.08 302.663L2212.08 299.674L2207.09 302.663L2209 297.826L2204 294.837H2210.18L2212.08 290Z" fill="#CCC04F" fill-opacity="0.6"/>
<path d="M2068.08 608L2069.99 612.837H2076.17L2071.17 615.826L2073.08 620.663L2068.08 617.674L2063.09 620.663L2065 615.826L2060 612.837H2066.18L2068.08 608Z" fill="#CCC04F" fill-opacity="0.6"/>
<path d="M2068.08 608L2069.99 612.837H2076.17L2071.17 615.826L2073.08 620.663L2068.08 617.674L2063.09 620.663L2065 615.826L2060 612.837H2066.18L2068.08 608Z" fill="#CCC04F" fill-opacity="0.6"/>
<path d="M232.084 653L233.992 657.837H240.168L235.172 660.826L237.08 665.663L232.084 662.674L227.088 665.663L228.996 660.826L224 657.837H230.176L232.084 653Z" fill="#CCC04F" fill-opacity="0.6"/>
<path d="M232.084 653L233.992 657.837H240.168L235.172 660.826L237.08 665.663L232.084 662.674L227.088 665.663L228.996 660.826L224 657.837H230.176L232.084 653Z" fill="#CCC04F" fill-opacity="0.6"/>
<path d="M2442.08 544L2443.99 548.837H2450.17L2445.17 551.826L2447.08 556.663L2442.08 553.674L2437.09 556.663L2439 551.826L2434 548.837H2440.18L2442.08 544Z" fill="#CCC04F" fill-opacity="0.6"/>
<path d="M2442.08 544L2443.99 548.837H2450.17L2445.17 551.826L2447.08 556.663L2442.08 553.674L2437.09 556.663L2439 551.826L2434 548.837H2440.18L2442.08 544Z" fill="#CCC04F" fill-opacity="0.6"/>
<path d="M2466.08 219L2467.99 223.837H2474.17L2469.17 226.826L2471.08 231.663L2466.08 228.674L2461.09 231.663L2463 226.826L2458 223.837H2464.18L2466.08 219Z" fill="#CCC04F" fill-opacity="0.6"/>
<path d="M2466.08 219L2467.99 223.837H2474.17L2469.17 226.826L2471.08 231.663L2466.08 228.674L2461.09 231.663L2463 226.826L2458 223.837H2464.18L2466.08 219Z" fill="#CCC04F" fill-opacity="0.6"/>
<path d="M638.084 420L639.992 424.837H646.168L641.172 427.826L643.08 432.663L638.084 429.674L633.088 432.663L634.996 427.826L630 424.837H636.176L638.084 420Z" fill="#CCC04F" fill-opacity="0.6"/>
<path d="M638.084 420L639.992 424.837H646.168L641.172 427.826L643.08 432.663L638.084 429.674L633.088 432.663L634.996 427.826L630 424.837H636.176L638.084 420Z" fill="#CCC04F" fill-opacity="0.6"/>
<path d="M819.084 206L820.992 210.837H827.168L822.172 213.826L824.08 218.663L819.084 215.674L814.088 218.663L815.996 213.826L811 210.837H817.176L819.084 206Z" fill="#CCC04F" fill-opacity="0.6"/>
<path d="M819.084 206L820.992 210.837H827.168L822.172 213.826L824.08 218.663L819.084 215.674L814.088 218.663L815.996 213.826L811 210.837H817.176L819.084 206Z" fill="#CCC04F" fill-opacity="0.6"/>
<path d="M98.084 433L99.9923 437.837H106.168L101.172 440.826L103.08 445.663L98.084 442.674L93.0878 445.663L94.9962 440.826L90 437.837H96.1756L98.084 433Z" fill="#CCC04F" fill-opacity="0.6"/>
<path d="M98.084 433L99.9923 437.837H106.168L101.172 440.826L103.08 445.663L98.084 442.674L93.0878 445.663L94.9962 440.826L90 437.837H96.1756L98.084 433Z" fill="#CCC04F" fill-opacity="0.6"/>
<path d="M1324.08 143L1325.99 147.837H1332.17L1327.17 150.826L1329.08 155.663L1324.08 152.674L1319.09 155.663L1321 150.826L1316 147.837H1322.18L1324.08 143Z" fill="#CCC04F" fill-opacity="0.6"/>
<path d="M1324.08 143L1325.99 147.837H1332.17L1327.17 150.826L1329.08 155.663L1324.08 152.674L1319.09 155.663L1321 150.826L1316 147.837H1322.18L1324.08 143Z" fill="#CCC04F" fill-opacity="0.6"/>
<path d="M361.084 296L362.992 300.837H369.168L364.172 303.826L366.08 308.663L361.084 305.674L356.088 308.663L357.996 303.826L353 300.837H359.176L361.084 296Z" fill="#CCC04F" fill-opacity="0.6"/>
<path d="M361.084 296L362.992 300.837H369.168L364.172 303.826L366.08 308.663L361.084 305.674L356.088 308.663L357.996 303.826L353 300.837H359.176L361.084 296Z" fill="#CCC04F" fill-opacity="0.6"/>
<path d="M589.084 186L590.992 190.837H597.168L592.172 193.826L594.08 198.663L589.084 195.674L584.088 198.663L585.996 193.826L581 190.837H587.176L589.084 186Z" fill="#CCC04F" fill-opacity="0.6"/>
<path d="M589.084 186L590.992 190.837H597.168L592.172 193.826L594.08 198.663L589.084 195.674L584.088 198.663L585.996 193.826L581 190.837H587.176L589.084 186Z" fill="#CCC04F" fill-opacity="0.6"/>
<path d="M360.084 137L361.992 141.837H368.168L363.172 144.826L365.08 149.663L360.084 146.674L355.088 149.663L356.996 144.826L352 141.837H358.176L360.084 137Z" fill="#CCC04F" fill-opacity="0.6"/>
<path d="M360.084 137L361.992 141.837H368.168L363.172 144.826L365.08 149.663L360.084 146.674L355.088 149.663L356.996 144.826L352 141.837H358.176L360.084 137Z" fill="#CCC04F" fill-opacity="0.6"/>
<path d="M474.672 549.424C474.287 550.157 474.569 551.064 475.302 551.449L487.253 557.728C487.987 558.113 488.894 557.831 489.279 557.098C489.664 556.364 489.382 555.457 488.649 555.072L478.026 549.491L483.607 538.868C483.992 538.134 483.71 537.228 482.976 536.842C482.243 536.457 481.336 536.739 480.951 537.473L474.672 549.424ZM1311.52 288.568L475.554 548.689L476.446 551.554L1312.41 291.432L1311.52 288.568Z" fill="url(#paint1_linear)"/>
<path d="M475.5 540L478.306 546.91H487.388L480.041 551.18L482.847 558.09L475.5 553.82L468.153 558.09L470.959 551.18L463.612 546.91H472.694L475.5 540Z" fill="#E5D85A"/>
<rect y="1428" width="2569" height="60" fill="#282B44"/>
</g>
<defs>
<linearGradient id="paint0_linear" x1="1284.5" y1="0" x2="1284.5" y2="1459" gradientUnits="userSpaceOnUse">
<stop stop-color="#12325C"/>
<stop offset="1" stop-color="#08192E" stop-opacity="0.53"/>
</linearGradient>
<linearGradient id="paint1_linear" x1="893.981" y1="420.062" x2="1240.43" y2="484.673" gradientUnits="userSpaceOnUse">
<stop stop-color="#E5D85A"/>
<stop offset="0.859375" stop-color="#CEC88B" stop-opacity="0"/>
<stop offset="1" stop-color="#EEECD7" stop-opacity="0"/>
</linearGradient>
<clipPath id="clip0">
<rect width="2569" height="1459" fill="white"/>
</clipPath>
</defs>
</svg>
