<svg width="1440" height="1024" viewBox="0 0 1440 1024" fill="none" xmlns="http://www.w3.org/2000/svg"><g clip-path="url(#clip0)"><path fill="#F7F8FA" d="M0 0h1440v1024H0z"/><g filter="url(#filter0_d)"><path d="M96.4366 798.669c7.9114-38.789 20.9024-45.761 58.7574-32.831" stroke="#B0ADAD" stroke-opacity=".69" stroke-width="5"/><path d="M90.9291 805.538c-2.1552-3.857-.7755-8.731 3.0815-10.886l54.9964-30.731c3.857-2.155 8.731-.775 10.886 3.082l18.946 33.906c2.155 3.857.775 8.731-3.082 10.886l-54.996 30.73c-3.857 2.155-8.731.776-10.886-3.081l-18.9459-33.906z" fill="#DBDBDB"/><path d="M90.9291 805.538c-2.1552-3.857-.7755-8.731 3.0815-10.886l54.9964-30.731c3.857-2.155 8.731-.775 10.886 3.082l18.946 33.906c2.155 3.857.775 8.731-3.082 10.886l-54.996 30.73c-3.857 2.155-8.731.776-10.886-3.081l-18.9459-33.906z" fill="#DBDBDB"/><path d="M90.9291 805.538c-2.1552-3.857-.7755-8.731 3.0815-10.886l54.9964-30.731c3.857-2.155 8.731-.775 10.886 3.082l18.946 33.906c2.155 3.857.775 8.731-3.082 10.886l-54.996 30.73c-3.857 2.155-8.731.776-10.886-3.081l-18.9459-33.906z" fill="#DBDBDB"/><path d="M104.572 749.991c1.439 1.621.474 13.58 5.418 15.386 2.784 3.137 7.004 1.691 8.485.276 1.481-1.415 2.33-3.416 2.359-5.563.03-2.147-.762-4.264-2.201-5.885l-1.278 1.222c1.11 1.25 1.006 3.565.983 5.22-.023 1.655-2.233 2.133-3.374 3.224-1.142 1.091-2.926-.451-4.324-2.027-2.21-7.508 1.685-14.745.576-15.994l-6.644 4.141z" fill="#9A9292"/><path d="M108.333 797.502l19.728 35.306M117.896 792.158l19.728 35.307M98.7698 802.845l19.7282 35.307M127.459 786.815l19.728 35.306M137.022 781.471l19.728 35.307M146.585 776.128l19.728 35.306M156.148 770.784l19.728 35.307" stroke="gray" stroke-opacity=".6" stroke-width="5"/><path d="M96.5215 796.112l54.9965-30.73c2.652-1.481 6.003-.533 7.485 2.119l18.945 33.906c1.482 2.652.533 6.002-2.118 7.484l-54.997 30.73c-2.652 1.482-6.003.533-7.484-2.118l-18.946-33.907c-1.4816-2.651-.5332-6.002 2.1185-7.484z" stroke="#8D8B8B" stroke-width="5"/></g><g filter="url(#filter1_d)"><path d="M707.868 937.655c37.032-13.994 49.858-6.722 59.107 32.196" stroke="#B0ADAD" stroke-opacity=".69" stroke-width="5"/><path d="M699.121 936.658c2.113-3.88 6.972-5.312 10.852-3.198l55.324 30.136c3.88 2.113 5.312 6.972 3.199 10.852l-18.579 34.112c-2.114 3.88-6.973 5.31-10.853 3.19l-55.324-30.131c-3.88-2.114-5.312-6.972-3.199-10.852l18.58-34.109z" fill="#DBDBDB"/><path d="M699.121 936.658c2.113-3.88 6.972-5.312 10.852-3.198l55.324 30.136c3.88 2.113 5.312 6.972 3.199 10.852l-18.579 34.112c-2.114 3.88-6.973 5.31-10.853 3.19l-55.324-30.131c-3.88-2.114-5.312-6.972-3.199-10.852l18.58-34.109z" fill="#DBDBDB"/><path d="M699.121 936.658c2.113-3.88 6.972-5.312 10.852-3.198l55.324 30.136c3.88 2.113 5.312 6.972 3.199 10.852l-18.579 34.112c-2.114 3.88-6.973 5.31-10.853 3.19l-55.324-30.131c-3.88-2.114-5.312-6.972-3.199-10.852l18.58-34.109z" fill="#DBDBDB"/><path d="M753.385 918.578c-.604 2.082-11.236 7.642-10.127 12.788-1.168 4.028 2.306 6.827 4.292 7.325 1.987.498 4.132.149 5.964-.971 1.832-1.12 3.201-2.918 3.804-5l-1.715-.43c-.465 1.605-2.479 2.752-3.891 3.615-1.413.863-2.995-.751-4.527-1.135s-1.178-2.715-.591-4.739c5.172-5.873 13.372-6.437 13.837-8.042l-7.046-3.411z" fill="#9A9292"/><path d="M715.2 947.095l-19.347 35.518M724.82 952.335l-19.347 35.518M705.58 941.855l-19.347 35.517M734.44 957.576l-19.347 35.517M744.06 962.816l-19.347 35.517M753.68 968.056l-19.347 35.514M763.3 973.296l-19.347 35.514" stroke="gray" stroke-opacity=".6" stroke-width="5"/><path d="M710.076 936.363l55.325 30.136c2.667 1.453 3.652 4.793 2.199 7.461l-18.58 34.11c-1.453 2.67-4.793 3.65-7.461 2.2l-55.324-30.139c-2.668-1.453-3.652-4.793-2.199-7.461l18.579-34.108c1.453-2.668 4.793-3.652 7.461-2.199z" stroke="#8D8B8B" stroke-width="5"/></g><g filter="url(#filter2_d)"><path d="M83 938.5c0 4.694-3.8056 8.5-8.5 8.5s-8.5-3.806-8.5-8.5 3.8056-8.5 8.5-8.5 8.5 3.806 8.5 8.5z" fill="#C4C4C4"/></g><g filter="url(#filter3_d)"><path d="M249 699.5c0 4.694-3.806 8.5-8.5 8.5s-8.5-3.806-8.5-8.5 3.806-8.5 8.5-8.5 8.5 3.806 8.5 8.5z" fill="#C4C4C4"/></g><g filter="url(#filter4_d)"><path d="M267 517.5c0 4.694-3.806 8.5-8.5 8.5s-8.5-3.806-8.5-8.5 3.806-8.5 8.5-8.5 8.5 3.806 8.5 8.5z" fill="#C4C4C4"/></g><g filter="url(#filter5_d)"><path d="M651 906.5c0 4.694-3.806 8.5-8.5 8.5s-8.5-3.806-8.5-8.5 3.806-8.5 8.5-8.5 8.5 3.806 8.5 8.5z" fill="#C4C4C4"/></g><g filter="url(#filter6_d)"><path d="M1304 948.5c0 4.694-3.81 8.5-8.5 8.5-4.69 0-8.5-3.806-8.5-8.5s3.81-8.5 8.5-8.5c4.69 0 8.5 3.806 8.5 8.5z" fill="#C4C4C4"/></g><g filter="url(#filter7_d)"><path d="M206 962c0 6.627-5.82 12-13 12s-13-5.373-13-12 5.82-12 13-12 13 5.373 13 12z" fill="#C4C4C4"/></g><g filter="url(#filter8_d)"><path d="M312 682c0 6.627-5.82 12-13 12s-13-5.373-13-12 5.82-12 13-12 13 5.373 13 12z" fill="#C4C4C4"/></g><g filter="url(#filter9_d)"><path d="M114 443c0 6.627-5.82 12-13 12-7.1797 0-13-5.373-13-12s5.8203-12 13-12c7.18 0 13 5.373 13 12z" fill="#C4C4C4"/></g><g filter="url(#filter10_d)"><path d="M1063 967.5c0 5.799-3.81 10.5-8.5 10.5-4.69 0-8.5-4.701-8.5-10.5s3.81-10.5 8.5-10.5c4.69 0 8.5 4.701 8.5 10.5z" fill="#C4C4C4"/></g><g filter="url(#filter11_d)"><path d="M1025 927c0 6.627-5.82 12-13 12s-13-5.373-13-12 5.82-12 13-12 13 5.373 13 12z" fill="#C4C4C4"/></g><g filter="url(#filter12_d)"><path d="M1416 804c0 6.627-5.82 12-13 12s-13-5.373-13-12 5.82-12 13-12 13 5.373 13 12z" fill="#C4C4C4"/></g><g filter="url(#filter13_d)"><path d="M405.076 923.234c1.474 6.122-2.007 12.211-7.776 13.6-5.768 1.388-11.639-2.449-13.113-8.571-1.474-6.123 2.007-12.212 7.776-13.6 5.768-1.389 11.639 2.448 13.113 8.571z" fill="#C4C4C4"/><path d="M428.234 925.457c-3.831 19.693.519 18.499-12.803 26.455-11.076 2.644-22.624 7.699-23.802-7.65-.695-9.055 5.694-11.835 12.6-12.078 6.905-.244 9.726 2.705 24.005-6.727z" fill="#C4C4C4"/><path d="M422.655 930.682c-2.748 14.015-7.624 20.681-12.567 20.855-7.928 1.883-13.144-1.023-13.639-7.467-.495-6.444 4.08-8.423 9.022-8.598 4.943-.174 6.961 1.924 17.184-4.79z" fill="#9E9A9A" fill-opacity=".69"/><path d="M394.488 926.017c.265 1.102-.226 2.166-1.097 2.375-.87.21-1.791-.514-2.056-1.616-.266-1.102.225-2.165 1.096-2.375.87-.209 1.791.514 2.057 1.616z" fill="#555151" fill-opacity=".76"/><path d="M379.476 934.314c-2.819-.248-3.746-3.912-1.388-5.487l4.703-3.141c1.722-1.15 4.057-.254 4.565 1.751l.92 3.636c.507 2.006-1.118 3.917-3.177 3.736l-5.623-.495z" fill="#C4C4C4"/><path fill-rule="evenodd" clip-rule="evenodd" d="M413.643 939.232c.786.262 1.211 1.112.948 1.898-.378 1.132-1.201 2.313-2.104 3.291-.913.987-2.05 1.919-3.193 2.465l-.018.009c-.804.384-1.557.744-2.233.984-.691.247-1.446.424-2.249.328-1.656-.196-2.834-1.463-4.038-3.1-.49-.667-.347-1.606.32-2.097.667-.491 1.606-.348 2.097.32 1.238 1.683 1.734 1.87 1.975 1.898.146.018.396.001.889-.175.503-.179 1.107-.465 1.964-.874.698-.333 1.538-.989 2.283-1.795.754-.816 1.271-1.634 1.462-2.204.262-.786 1.112-1.21 1.897-.948z" fill="#666363" fill-opacity=".31"/></g><g filter="url(#filter14_d)"><path d="M1166.14 935.315c-1.23 6.176 2.49 12.122 8.31 13.282 5.81 1.159 11.53-2.907 12.76-9.083 1.23-6.176-2.49-12.123-8.31-13.282-5.82-1.16-11.53 2.907-12.76 9.083z" fill="#C4C4C4"/><path d="M1143.09 938.452c4.6 19.527.21 18.505 13.83 25.928 11.18 2.204 22.92 6.798 23.49-8.585.33-9.076-6.16-11.601-13.07-11.571-6.91.03-9.61 3.088-24.25-5.772z" fill="#C4C4C4"/><path d="M1148.87 943.452c3.3 13.896 8.43 20.364 13.38 20.343 8 1.568 13.09-1.543 13.33-8.001.24-6.459-4.41-8.256-9.35-8.234-4.95.021-6.88 2.197-17.36-4.108z" fill="#9E9A9A" fill-opacity=".69"/><path d="M1176.83 937.677c-.22 1.112.31 2.155 1.19 2.33.88.175 1.77-.584 1.99-1.696.22-1.111-.31-2.154-1.19-2.329-.88-.175-1.77.584-1.99 1.695z" fill="#555151" fill-opacity=".76"/><path d="M1192.16 945.374c2.8-.359 3.58-4.057 1.17-5.538l-4.83-2.952c-1.76-1.082-4.06-.094-4.49 1.93l-.77 3.67c-.43 2.024 1.27 3.869 3.32 3.607l5.6-.717z" fill="#C4C4C4"/><path fill-rule="evenodd" clip-rule="evenodd" d="M1158.21 951.64c-.77.293-1.17 1.159-.87 1.933.42 1.117 1.29 2.264 2.23 3.205.95.951 2.12 1.837 3.29 2.338l.02.007c.82.353 1.58.682 2.27.896.7.219 1.46.366 2.26.239 1.64-.262 2.77-1.575 3.91-3.258.46-.686.28-1.618-.4-2.082-.69-.465-1.62-.284-2.09.402-1.17 1.731-1.65 1.937-1.89 1.975-.15.023-.4.016-.9-.14-.51-.159-1.12-.42-2-.795-.71-.306-1.57-.928-2.35-1.704-.78-.785-1.33-1.582-1.55-2.144-.29-.775-1.16-1.166-1.93-.872z" fill="#666363" fill-opacity=".31"/></g><g filter="url(#filter15_d)"><path d="M86.9474 567l.0046 25.393-39.9852.08-.0045-25.394L86.9474 567z" fill="#D4D5D7" fill-opacity=".83"/><path fill-rule="evenodd" clip-rule="evenodd" d="M85.9518 591.395l-.0042-23.393-37.9852.075.0043 23.394 37.9851-.076zM86.9474 567l-39.9851.079.0045 25.394 39.9852-.08L86.9474 567z" fill="#6D6B6B" fill-opacity=".43"/><path d="M111.97 592.417l.03 25.394-39.985.189-.0298-25.393 39.9848-.19z" fill="#D4D5D7" fill-opacity=".83"/><path fill-rule="evenodd" clip-rule="evenodd" d="M110.999 616.815l-.028-23.393-37.9847.18.0275 23.393 37.9852-.18zm.971-24.398l-39.9848.19L72.015 618l39.985-.189-.03-25.394z" fill="#6D6B6B" fill-opacity=".43"/><path d="M71.985 592.417l.0298 25.394-39.9851.189-.0298-25.393 39.9851-.19z" fill="#D4D5D7" fill-opacity=".83"/><path fill-rule="evenodd" clip-rule="evenodd" d="M71.0136 616.815l-.0274-23.393-37.9851.18.0275 23.393 37.985-.18zm.9714-24.398l-39.9851.19.0298 25.393 39.9851-.189-.0298-25.394z" fill="#6D6B6B" fill-opacity=".43"/></g><g filter="url(#filter16_d)"><path d="M1390.95 961v25.393l-39.98.08-.01-25.394 39.99-.079z" fill="#D4D5D7" fill-opacity=".83"/><path fill-rule="evenodd" clip-rule="evenodd" d="M1389.95 985.395v-23.393l-37.99.075.01 23.394 37.98-.076zm1-24.395l-39.99.079.01 25.394 39.98-.08V961z" fill="#6D6B6B" fill-opacity=".43"/><path d="M1415.97 986.417l.03 25.393-39.99.19-.02-25.393 39.98-.19z" fill="#D4D5D7" fill-opacity=".83"/><path fill-rule="evenodd" clip-rule="evenodd" d="M1415 1010.82l-.03-23.398-37.98.18.02 23.398 37.99-.18zm.97-24.403l-39.98.19.02 25.393 39.99-.19-.03-25.393z" fill="#6D6B6B" fill-opacity=".43"/><path d="M1375.99 986.417l.02 25.393-39.98.19-.03-25.393 39.99-.19z" fill="#D4D5D7" fill-opacity=".83"/><path fill-rule="evenodd" clip-rule="evenodd" d="M1375.01 1010.82l-.02-23.398-37.99.18.03 23.398 37.98-.18zm.98-24.403l-39.99.19.03 25.393 39.98-.19-.02-25.393z" fill="#6D6B6B" fill-opacity=".43"/></g><g filter="url(#filter17_d)"><path d="M772.947 706l.005 25.393-39.985.08-.005-25.394 39.985-.079z" fill="#D4D5D7" fill-opacity=".83"/><path fill-rule="evenodd" clip-rule="evenodd" d="M771.952 730.395l-.004-23.393-37.986.075.005 23.394 37.985-.076zm.995-24.395l-39.985.079.005 25.394 39.985-.08-.005-25.393z" fill="#6D6B6B" fill-opacity=".43"/><path d="M797.97 731.417l.03 25.394-39.985.189-.03-25.393 39.985-.19z" fill="#D4D5D7" fill-opacity=".83"/><path fill-rule="evenodd" clip-rule="evenodd" d="M796.999 755.815l-.028-23.393-37.985.18.028 23.393 37.985-.18zm.971-24.398l-39.985.19.03 25.393 39.985-.189-.03-25.394z" fill="#6D6B6B" fill-opacity=".43"/><path d="M757.985 731.417l.03 25.394-39.985.189-.03-25.393 39.985-.19z" fill="#D4D5D7" fill-opacity=".83"/><path fill-rule="evenodd" clip-rule="evenodd" d="M757.014 755.815l-.028-23.393-37.985.18.028 23.393 37.985-.18zm.971-24.398l-39.985.19.03 25.393 39.985-.189-.03-25.394z" fill="#6D6B6B" fill-opacity=".43"/></g><g filter="url(#filter18_d)"><path d="M1320.95 418v25.393l-39.98.08-.01-25.394 39.99-.079z" fill="#D4D5D7" fill-opacity=".83"/><path fill-rule="evenodd" clip-rule="evenodd" d="M1319.95 442.395v-23.393l-37.99.075.01 23.394 37.98-.076zm1-24.395l-39.99.079.01 25.394 39.98-.08V418z" fill="#6D6B6B" fill-opacity=".43"/><path d="M1345.97 443.417l.03 25.394-39.99.189-.02-25.393 39.98-.19z" fill="#D4D5D7" fill-opacity=".83"/><path fill-rule="evenodd" clip-rule="evenodd" d="M1345 467.815l-.03-23.393-37.98.18.02 23.393 37.99-.18zm.97-24.398l-39.98.19.02 25.393 39.99-.189-.03-25.394z" fill="#6D6B6B" fill-opacity=".43"/><path d="M1305.99 443.417l.02 25.394-39.98.189-.03-25.393 39.99-.19z" fill="#D4D5D7" fill-opacity=".83"/><path fill-rule="evenodd" clip-rule="evenodd" d="M1305.01 467.815l-.02-23.393-37.99.18.03 23.393 37.98-.18zm.98-24.398l-39.99.19.03 25.393 39.98-.189-.02-25.394z" fill="#6D6B6B" fill-opacity=".43"/></g><g filter="url(#filter19_d)"><path d="M505.947 959l.005 25.393-39.985.08-.005-25.394 39.985-.079z" fill="#D4D5D7" fill-opacity=".83"/><path fill-rule="evenodd" clip-rule="evenodd" d="M504.952 983.395l-.004-23.393-37.986.075.005 23.394 37.985-.076zm.995-24.395l-39.985.079.005 25.394 39.985-.08-.005-25.393z" fill="#6D6B6B" fill-opacity=".43"/><path d="M530.97 984.417l.03 25.393-39.985.19-.03-25.393 39.985-.19z" fill="#D4D5D7" fill-opacity=".83"/><path fill-rule="evenodd" clip-rule="evenodd" d="M529.999 1008.82l-.028-23.398-37.985.18.028 23.398 37.985-.18zm.971-24.403l-39.985.19.03 25.393 39.985-.19-.03-25.393z" fill="#6D6B6B" fill-opacity=".43"/><path d="M490.985 984.417l.03 25.393-39.985.19-.03-25.393 39.985-.19z" fill="#D4D5D7" fill-opacity=".83"/><path fill-rule="evenodd" clip-rule="evenodd" d="M490.014 1008.82l-.028-23.398-37.985.18.028 23.398 37.985-.18zm.971-24.403l-39.985.19.03 25.393 39.985-.19-.03-25.393z" fill="#6D6B6B" fill-opacity=".43"/></g><path d="M978.793 640c0 4.971-3.806 9-8.5 9-4.695 0-8.5-4.029-8.5-9s3.805-9 8.5-9c4.694 0 8.5 4.029 8.5 9z" fill="#C4C4C4"/><path d="M187.016 111.575c-1.911 14.789 19.769 29.778 48.422 33.479 28.653 3.7 53.429-5.288 55.339-20.077 1.91-14.789-19.769-29.7777-48.422-33.4785-28.653-3.7007-53.429 5.2879-55.339 20.0765z" fill="#E1E1E1"/><path d="M133.136 123.284c-1.91 14.789 19.77 29.778 48.423 33.479 28.653 3.701 53.429-5.288 55.339-20.077 1.91-14.789-19.769-29.778-48.422-33.478-28.653-3.7011-53.43 5.288-55.34 20.076z" fill="#E1E1E1"/><path d="M128.384 95.4462c-1.911 14.7888 19.769 29.7778 48.422 33.4788 28.653 3.7 53.429-5.288 55.339-20.077 1.91-14.7889-19.769-29.7777-48.422-33.4785-28.653-3.7008-53.429 5.2879-55.339 20.0767z" fill="#E1E1E1"/><path d="M80.1358 116.439c-1.9101 14.789 19.7693 29.777 48.4222 33.478 28.653 3.701 53.429-5.288 55.34-20.076 1.91-14.789-19.77-29.778-48.423-33.4789-28.653-3.7007-53.4291 5.2879-55.3392 20.0769zM1278.34 99.3764c-2 15.4706 18 30.8046 44.66 34.2476 26.66 3.444 49.89-6.307 51.89-21.777 2-15.4714-17.99-30.8047-44.65-34.2482-26.67-3.4435-49.9 6.3066-51.9 21.7776z" fill="#E1E1E1"/><path d="M1227.93 112.395c-1.99 15.471 18 30.804 44.66 34.248 26.66 3.443 49.9-6.307 51.89-21.778 2-15.471-17.99-30.8042-44.65-34.2477-26.66-3.4435-49.9 6.3066-51.9 21.7777z" fill="#E1E1E1"/><path d="M1223.91 83.3954c-2 15.4709 18 30.8046 44.66 34.2476 26.66 3.444 49.89-6.307 51.89-21.7775 2-15.471-17.99-30.8042-44.66-34.2477-26.66-3.4435-49.89 6.3066-51.89 21.7776z" fill="#E1E1E1"/><path d="M1178.62 106.025c-2 15.471 17.99 30.804 44.65 34.248 26.67 3.443 49.9-6.307 51.9-21.778 2-15.471-18-30.8038-44.66-34.2473-26.66-3.4436-49.89 6.3066-51.89 21.7773zM1278.34 99.3764c-2 15.4706 18 30.8046 44.66 34.2476 26.66 3.444 49.89-6.307 51.89-21.777 2-15.4714-17.99-30.8047-44.65-34.2482-26.67-3.4435-49.9 6.3066-51.9 21.7776z" fill="#E1E1E1"/><path d="M1227.93 112.395c-1.99 15.471 18 30.804 44.66 34.248 26.66 3.443 49.9-6.307 51.89-21.778 2-15.471-17.99-30.8042-44.65-34.2477-26.66-3.4435-49.9 6.3066-51.9 21.7777z" fill="#E1E1E1"/><path d="M1223.91 83.3954c-2 15.4709 18 30.8046 44.66 34.2476 26.66 3.444 49.89-6.307 51.89-21.7775 2-15.471-17.99-30.8042-44.66-34.2477-26.66-3.4435-49.89 6.3066-51.89 21.7776z" fill="#E1E1E1"/><path d="M1178.62 106.025c-2 15.471 17.99 30.804 44.65 34.248 26.67 3.443 49.9-6.307 51.9-21.778 2-15.471-18-30.8038-44.66-34.2473-26.66-3.4436-49.89 6.3066-51.89 21.7773zM681.343 247.376c-1.999 15.471 17.995 30.805 44.656 34.248 26.661 3.444 49.894-6.307 51.892-21.777 1.999-15.471-17.995-30.805-44.656-34.248-26.661-3.444-49.894 6.306-51.892 21.777z" fill="#E1E1E1"/><path d="M630.934 260.395c-1.998 15.471 17.996 30.804 44.657 34.248 26.661 3.443 49.894-6.307 51.892-21.778 1.999-15.471-17.995-30.804-44.656-34.248-26.661-3.443-49.894 6.307-51.893 21.778z" fill="#E1E1E1"/><path d="M626.912 231.395c-1.998 15.471 17.995 30.805 44.656 34.248 26.662 3.444 49.895-6.307 51.893-21.778 1.998-15.47-17.995-30.804-44.657-34.247-26.661-3.444-49.894 6.306-51.892 21.777z" fill="#E1E1E1"/><path d="M581.618 254.025c-1.998 15.471 17.995 30.804 44.656 34.248 26.662 3.443 49.895-6.307 51.893-21.778 1.998-15.471-17.995-30.804-44.656-34.247-26.662-3.444-49.895 6.306-51.893 21.777zM713.924 16.6904c1.418 10.9805-19.045 22.6735-45.707 26.1171-26.661 3.4435-49.424-2.6665-50.842-13.647C615.957 18.18 636.42 6.48697 663.082 3.04345c26.661-3.443526 49.424 2.66642 50.842 13.64695z" fill="#E1E1E1"/><path d="M763.612 24.1336c1.418 10.9806-19.045 22.6736-45.707 26.1171-26.661 3.4435-49.424-2.6664-50.842-13.6469-1.418-10.9806 19.045-22.6736 45.706-26.1171 26.662-3.44354 49.425 2.6664 50.843 13.6469z" fill="#E1E1E1"/><path d="M768.685 3.26475c1.418 10.98055-19.046 22.67355-45.707 26.11705-26.661 3.4435-49.424-2.6664-50.842-13.6469-1.419-10.98058 19.045-22.67358 45.706-26.1171 26.661-3.4435 49.424 2.66641 50.843 13.64695z" fill="#E1E1E1"/><path d="M812.928 17.764c1.418 10.9805-19.045 22.6736-45.706 26.1171-26.662 3.4435-49.424-2.6664-50.843-13.647-1.418-10.9805 19.046-22.67352 45.707-26.11704C788.747.673532 811.51 6.78348 812.928 17.764z" fill="#E1E1E1"/><path d="M844.266 185.716c0 5.366-3.743 9.716-8.361 9.716s-8.362-4.35-8.362-9.716 3.744-9.716 8.362-9.716 8.361 4.35 8.361 9.716z" fill="#E3E3E3"/><path d="M835.907 184.283c0 .796-.567 1.442-1.266 1.442-.7 0-1.267-.646-1.267-1.442 0-.796.567-1.441 1.267-1.441.699 0 1.266.645 1.266 1.441z" fill="#9E9A9A" fill-opacity=".69"/><path d="M830.922 182.217l2.381 11.707-10.31-3.658 7.929-8.049z" fill="#E3E3E3"/><path d="M859.161 172.492c3.44 18.39-4.112 26.108-10.903 28.589-6.792 2.482-13.905.682-15.887-4.019-1.982-4.701 2.844-8.325 9.636-10.806s3.794.749 17.154-13.764z" fill="#E3E3E3"/><path d="M872.761 190.39c-14.011 18.081-28.837 18.388-34.869 15.311-6.032-3.077-7.847-9.919-4.054-15.282 3.792-5.363 5.699 2.33 15.26 2.823 14.406-1.737-3.293-3.067 23.663-2.852zM195.266 281.716c0 5.366-3.743 9.716-8.361 9.716-4.619 0-8.362-4.35-8.362-9.716s3.743-9.716 8.362-9.716c4.618 0 8.361 4.35 8.361 9.716z" fill="#E3E3E3"/><path d="M186.907 280.283c0 .796-.567 1.442-1.266 1.442-.7 0-1.267-.646-1.267-1.442 0-.796.567-1.441 1.267-1.441.699 0 1.266.645 1.266 1.441z" fill="#9E9A9A" fill-opacity=".69"/><path d="M181.922 278.217l2.381 11.707-10.31-3.658 7.929-8.049z" fill="#E3E3E3"/><path d="M210.161 268.492c3.44 18.39-4.112 26.108-10.903 28.589-6.792 2.482-13.905.682-15.887-4.019-1.982-4.701 2.844-8.325 9.636-10.806s3.794.749 17.154-13.764z" fill="#E3E3E3"/><path d="M223.761 286.39c-14.011 18.081-28.837 18.388-34.869 15.311-6.032-3.077-7.847-9.919-4.054-15.282 3.792-5.363 5.699 2.33 15.26 2.823 14.406-1.737-3.293-3.067 23.663-2.852zM1340.86 226.726c0 3.715-2.41 6.727-5.39 6.727-2.97 0-5.39-3.012-5.39-6.727 0-3.715 2.42-6.726 5.39-6.726 2.98 0 5.39 3.011 5.39 6.726z" fill="#E3E3E3"/><path d="M1335.47 225.735c0 .551-.36.997-.81.997-.45 0-.82-.446-.82-.997 0-.552.37-.998.82-.998.45 0 .81.446.81.998z" fill="#9E9A9A" fill-opacity=".69"/><path d="M1332.26 224.304l1.54 8.105-6.65-2.533 5.11-5.572z" fill="#E3E3E3"/><path d="M1350.46 217.571c2.22 12.732-2.65 18.075-7.03 19.793-4.37 1.718-8.96.472-10.24-2.783-1.27-3.254 1.84-5.763 6.21-7.481 4.38-1.717 2.45.519 11.06-9.529z" fill="#E3E3E3"/><path d="M1359.22 229.962c-9.03 12.518-18.58 12.73-22.47 10.6-3.88-2.13-5.05-6.867-2.61-10.58s3.67 1.613 9.83 1.955c9.29-1.202-2.12-2.123 15.25-1.975zM438.064 68.4702c0 4.6779-3.079 8.4702-6.876 8.4702s-6.875-3.7923-6.875-8.4702c0-4.678 3.078-8.4702 6.875-8.4702s6.876 3.7922 6.876 8.4702z" fill="#E3E3E3"/><path d="M431.19 67.2214c0 .6939-.466 1.2565-1.041 1.2565s-1.041-.5626-1.041-1.2565c0-.694.466-1.2566 1.041-1.2566s1.041.5626 1.041 1.2566z" fill="#9E9A9A" fill-opacity=".69"/><path d="M427.091 65.4203l1.958 10.2058-8.477-3.1894 6.519-7.0164z" fill="#E3E3E3"/><path d="M450.31 56.9419c2.829 16.0319-3.381 22.7607-8.965 24.9239-5.584 2.1631-11.432.5944-13.062-3.504-1.63-4.0984 2.338-7.2574 7.923-9.4206 5.584-2.1632 3.12.6533 14.104-11.9993z" fill="#E3E3E3"/><path d="M461.492 72.5448c-11.52 15.7636-23.71 16.0307-28.67 13.3482-4.959-2.6825-6.452-8.6474-3.333-13.3229 3.118-4.6755 4.686 2.0313 12.547 2.4614 11.845-1.5139-2.707-2.6736 19.456-2.4867z" fill="#E3E3E3"/><g filter="url(#filter20_d)"><path d="M697.371 478.968c38.799-7.869 50.291 1.368 53.174 41.266" stroke="#B0ADAD" stroke-opacity=".69" stroke-width="5"/><path d="M688.897 476.58c2.709-3.49 7.735-4.124 11.225-1.415l49.771 38.625c3.49 2.709 4.124 7.734 1.415 11.225l-23.812 30.684c-2.709 3.491-7.735 4.124-11.225 1.415L666.5 518.489c-3.49-2.708-4.124-7.734-1.415-11.224l23.812-30.685z" fill="#DBDBDB"/><path d="M688.897 476.58c2.709-3.49 7.735-4.124 11.225-1.415l49.771 38.625c3.49 2.709 4.124 7.734 1.415 11.225l-23.812 30.684c-2.709 3.491-7.735 4.124-11.225 1.415L666.5 518.489c-3.49-2.708-4.124-7.734-1.415-11.224l23.812-30.685z" fill="#DBDBDB"/><path d="M688.897 476.58c2.709-3.49 7.735-4.124 11.225-1.415l49.771 38.625c3.49 2.709 4.124 7.734 1.415 11.225l-23.812 30.684c-2.709 3.491-7.735 4.124-11.225 1.415L666.5 518.489c-3.49-2.708-4.124-7.734-1.415-11.224l23.812-30.685z" fill="#DBDBDB"/><path d="M745.36 467.444c-.93 1.957-12.316 5.74-12.048 10.996-1.8 3.789 1.18 7.109 3.061 7.919 1.881.811 4.055.81 6.043-.001 1.988-.811 3.627-2.367 4.557-4.324l-1.624-.7c-.717 1.51-2.888 2.318-4.421 2.944-1.533.625-2.836-1.222-4.286-1.847-1.451-.625-.727-2.869.177-4.772 6.048-4.967 14.232-4.208 14.949-5.718l-6.408-4.497z" fill="#9A9292"/><path d="M703.093 489.463l-24.796 31.952M711.747 496.179l-24.796 31.952M694.439 482.747l-24.797 31.951M720.402 502.895l-24.797 31.952M729.056 509.611l-24.797 31.952M737.71 516.328l-24.796 31.951M746.365 523.044l-24.797 31.952" stroke="gray" stroke-opacity=".6" stroke-width="5"/><path d="M699.758 478.047l49.771 38.625c2.4 1.862 2.835 5.317.973 7.717l-23.813 30.684c-1.862 2.4-5.317 2.836-7.717.973l-49.77-38.625c-2.4-1.862-2.836-5.317-.973-7.717l23.812-30.684c1.863-2.4 5.318-2.835 7.717-.973z" stroke="#8D8B8B" stroke-width="5"/></g><g filter="url(#filter21_d)"><path d="M1233.5 821.638c4.02-39.383 16.26-47.609 55.21-38.497" stroke="#B0ADAD" stroke-opacity=".69" stroke-width="5"/><path d="M1228.7 829.019c-2.53-3.624-1.64-8.611 1.99-11.138l51.67-36.034c3.63-2.527 8.61-1.637 11.14 1.987l22.22 31.86c2.52 3.624 1.63 8.611-1.99 11.138l-51.68 36.033c-3.62 2.527-8.61 1.638-11.14-1.986l-22.21-31.86z" fill="#DBDBDB"/><path d="M1228.7 829.019c-2.53-3.624-1.64-8.611 1.99-11.138l51.67-36.034c3.63-2.527 8.61-1.637 11.14 1.987l22.22 31.86c2.52 3.624 1.63 8.611-1.99 11.138l-51.68 36.033c-3.62 2.527-8.61 1.638-11.14-1.986l-22.21-31.86z" fill="#DBDBDB"/><path d="M1228.7 829.019c-2.53-3.624-1.64-8.611 1.99-11.138l51.67-36.034c3.63-2.527 8.61-1.637 11.14 1.987l22.22 31.86c2.52 3.624 1.63 8.611-1.99 11.138l-51.68 36.033c-3.62 2.527-8.61 1.638-11.14-1.986l-22.21-31.86z" fill="#DBDBDB"/><path d="M1236.77 772.393c1.59 1.471 1.81 13.466 6.91 14.773 3.08 2.845 7.14.987 8.47-.568 1.34-1.555 1.98-3.63 1.8-5.769-.18-2.139-1.18-4.167-2.77-5.637l-1.16 1.342c1.23 1.134 1.36 3.448 1.5 5.097.14 1.649-2.01 2.344-3.04 3.543-1.03 1.199-2.95-.159-4.5-1.588-2.94-7.252.21-14.839-1.01-15.973l-6.2 4.78z" fill="#9A9292"/><path d="M1245.22 819.296l23.13 33.176M1254.21 813.031l23.13 33.176M1236.23 825.562l23.14 33.176M1263.19 806.765l23.13 33.176M1272.18 800.499l23.13 33.176M1281.16 794.234l23.14 33.176M1290.15 787.968l23.13 33.176" stroke="gray" stroke-opacity=".6" stroke-width="5"/><path d="M1233.33 819.085l51.68-36.033c2.49-1.738 5.92-1.126 7.65 1.366l22.22 31.859c1.74 2.492 1.13 5.92-1.37 7.658l-51.67 36.033c-2.5 1.738-5.92 1.126-7.66-1.365l-22.22-31.86c-1.73-2.492-1.12-5.92 1.37-7.658z" stroke="#8D8B8B" stroke-width="5"/></g></g><defs><filter id="filter0_d" x="67" y="728" width="122.328" height="133.721" filterUnits="userSpaceOnUse" color-interpolation-filters="sRGB"><feFlood flood-opacity="0" result="BackgroundImageFix"/><feColorMatrix in="SourceAlpha" values="0 0 0 0 0 0 0 0 0 0 0 0 0 0 0 0 0 0 127 0" result="hardAlpha"/><feOffset dy="10"/><feGaussianBlur stdDeviation="2"/><feComposite in2="hardAlpha" operator="out"/><feColorMatrix values="0 0 0 0 0 0 0 0 0 0 0 0 0 0 0 0 0 0 0.25 0"/><feBlend in2="BackgroundImageFix" result="effect1_dropShadow"/><feBlend in="SourceGraphic" in2="effect1_dropShadow" result="shape"/></filter><filter id="filter1_d" x="672.714" y="899" width="122.148" height="133.459" filterUnits="userSpaceOnUse" color-interpolation-filters="sRGB"><feFlood flood-opacity="0" result="BackgroundImageFix"/><feColorMatrix in="SourceAlpha" values="0 0 0 0 0 0 0 0 0 0 0 0 0 0 0 0 0 0 127 0" result="hardAlpha"/><feOffset dy="10"/><feGaussianBlur stdDeviation="2"/><feComposite in2="hardAlpha" operator="out"/><feColorMatrix values="0 0 0 0 0 0 0 0 0 0 0 0 0 0 0 0 0 0 0.25 0"/><feBlend in2="BackgroundImageFix" result="effect1_dropShadow"/><feBlend in="SourceGraphic" in2="effect1_dropShadow" result="shape"/></filter><filter id="filter2_d" x="62" y="930" width="25" height="25" filterUnits="userSpaceOnUse" color-interpolation-filters="sRGB"><feFlood flood-opacity="0" result="BackgroundImageFix"/><feColorMatrix in="SourceAlpha" values="0 0 0 0 0 0 0 0 0 0 0 0 0 0 0 0 0 0 127 0" result="hardAlpha"/><feOffset dy="4"/><feGaussianBlur stdDeviation="2"/><feComposite in2="hardAlpha" operator="out"/><feColorMatrix values="0 0 0 0 0 0 0 0 0 0 0 0 0 0 0 0 0 0 0.25 0"/><feBlend in2="BackgroundImageFix" result="effect1_dropShadow"/><feBlend in="SourceGraphic" in2="effect1_dropShadow" result="shape"/></filter><filter id="filter3_d" x="228" y="691" width="25" height="25" filterUnits="userSpaceOnUse" color-interpolation-filters="sRGB"><feFlood flood-opacity="0" result="BackgroundImageFix"/><feColorMatrix in="SourceAlpha" values="0 0 0 0 0 0 0 0 0 0 0 0 0 0 0 0 0 0 127 0" result="hardAlpha"/><feOffset dy="4"/><feGaussianBlur stdDeviation="2"/><feComposite in2="hardAlpha" operator="out"/><feColorMatrix values="0 0 0 0 0 0 0 0 0 0 0 0 0 0 0 0 0 0 0.25 0"/><feBlend in2="BackgroundImageFix" result="effect1_dropShadow"/><feBlend in="SourceGraphic" in2="effect1_dropShadow" result="shape"/></filter><filter id="filter4_d" x="246" y="509" width="25" height="25" filterUnits="userSpaceOnUse" color-interpolation-filters="sRGB"><feFlood flood-opacity="0" result="BackgroundImageFix"/><feColorMatrix in="SourceAlpha" values="0 0 0 0 0 0 0 0 0 0 0 0 0 0 0 0 0 0 127 0" result="hardAlpha"/><feOffset dy="4"/><feGaussianBlur stdDeviation="2"/><feComposite in2="hardAlpha" operator="out"/><feColorMatrix values="0 0 0 0 0 0 0 0 0 0 0 0 0 0 0 0 0 0 0.25 0"/><feBlend in2="BackgroundImageFix" result="effect1_dropShadow"/><feBlend in="SourceGraphic" in2="effect1_dropShadow" result="shape"/></filter><filter id="filter5_d" x="630" y="898" width="25" height="25" filterUnits="userSpaceOnUse" color-interpolation-filters="sRGB"><feFlood flood-opacity="0" result="BackgroundImageFix"/><feColorMatrix in="SourceAlpha" values="0 0 0 0 0 0 0 0 0 0 0 0 0 0 0 0 0 0 127 0" result="hardAlpha"/><feOffset dy="4"/><feGaussianBlur stdDeviation="2"/><feComposite in2="hardAlpha" operator="out"/><feColorMatrix values="0 0 0 0 0 0 0 0 0 0 0 0 0 0 0 0 0 0 0.25 0"/><feBlend in2="BackgroundImageFix" result="effect1_dropShadow"/><feBlend in="SourceGraphic" in2="effect1_dropShadow" result="shape"/></filter><filter id="filter6_d" x="1283" y="940" width="25" height="25" filterUnits="userSpaceOnUse" color-interpolation-filters="sRGB"><feFlood flood-opacity="0" result="BackgroundImageFix"/><feColorMatrix in="SourceAlpha" values="0 0 0 0 0 0 0 0 0 0 0 0 0 0 0 0 0 0 127 0" result="hardAlpha"/><feOffset dy="4"/><feGaussianBlur stdDeviation="2"/><feComposite in2="hardAlpha" operator="out"/><feColorMatrix values="0 0 0 0 0 0 0 0 0 0 0 0 0 0 0 0 0 0 0.25 0"/><feBlend in2="BackgroundImageFix" result="effect1_dropShadow"/><feBlend in="SourceGraphic" in2="effect1_dropShadow" result="shape"/></filter><filter id="filter7_d" x="176" y="950" width="34" height="32" filterUnits="userSpaceOnUse" color-interpolation-filters="sRGB"><feFlood flood-opacity="0" result="BackgroundImageFix"/><feColorMatrix in="SourceAlpha" values="0 0 0 0 0 0 0 0 0 0 0 0 0 0 0 0 0 0 127 0" result="hardAlpha"/><feOffset dy="4"/><feGaussianBlur stdDeviation="2"/><feComposite in2="hardAlpha" operator="out"/><feColorMatrix values="0 0 0 0 0 0 0 0 0 0 0 0 0 0 0 0 0 0 0.25 0"/><feBlend in2="BackgroundImageFix" result="effect1_dropShadow"/><feBlend in="SourceGraphic" in2="effect1_dropShadow" result="shape"/></filter><filter id="filter8_d" x="282" y="670" width="34" height="32" filterUnits="userSpaceOnUse" color-interpolation-filters="sRGB"><feFlood flood-opacity="0" result="BackgroundImageFix"/><feColorMatrix in="SourceAlpha" values="0 0 0 0 0 0 0 0 0 0 0 0 0 0 0 0 0 0 127 0" result="hardAlpha"/><feOffset dy="4"/><feGaussianBlur stdDeviation="2"/><feComposite in2="hardAlpha" operator="out"/><feColorMatrix values="0 0 0 0 0 0 0 0 0 0 0 0 0 0 0 0 0 0 0.25 0"/><feBlend in2="BackgroundImageFix" result="effect1_dropShadow"/><feBlend in="SourceGraphic" in2="effect1_dropShadow" result="shape"/></filter><filter id="filter9_d" x="84" y="431" width="34" height="32" filterUnits="userSpaceOnUse" color-interpolation-filters="sRGB"><feFlood flood-opacity="0" result="BackgroundImageFix"/><feColorMatrix in="SourceAlpha" values="0 0 0 0 0 0 0 0 0 0 0 0 0 0 0 0 0 0 127 0" result="hardAlpha"/><feOffset dy="4"/><feGaussianBlur stdDeviation="2"/><feComposite in2="hardAlpha" operator="out"/><feColorMatrix values="0 0 0 0 0 0 0 0 0 0 0 0 0 0 0 0 0 0 0.25 0"/><feBlend in2="BackgroundImageFix" result="effect1_dropShadow"/><feBlend in="SourceGraphic" in2="effect1_dropShadow" result="shape"/></filter><filter id="filter10_d" x="1042" y="957" width="25" height="29" filterUnits="userSpaceOnUse" color-interpolation-filters="sRGB"><feFlood flood-opacity="0" result="BackgroundImageFix"/><feColorMatrix in="SourceAlpha" values="0 0 0 0 0 0 0 0 0 0 0 0 0 0 0 0 0 0 127 0" result="hardAlpha"/><feOffset dy="4"/><feGaussianBlur stdDeviation="2"/><feComposite in2="hardAlpha" operator="out"/><feColorMatrix values="0 0 0 0 0 0 0 0 0 0 0 0 0 0 0 0 0 0 0.25 0"/><feBlend in2="BackgroundImageFix" result="effect1_dropShadow"/><feBlend in="SourceGraphic" in2="effect1_dropShadow" result="shape"/></filter><filter id="filter11_d" x="995" y="915" width="34" height="32" filterUnits="userSpaceOnUse" color-interpolation-filters="sRGB"><feFlood flood-opacity="0" result="BackgroundImageFix"/><feColorMatrix in="SourceAlpha" values="0 0 0 0 0 0 0 0 0 0 0 0 0 0 0 0 0 0 127 0" result="hardAlpha"/><feOffset dy="4"/><feGaussianBlur stdDeviation="2"/><feComposite in2="hardAlpha" operator="out"/><feColorMatrix values="0 0 0 0 0 0 0 0 0 0 0 0 0 0 0 0 0 0 0.25 0"/><feBlend in2="BackgroundImageFix" result="effect1_dropShadow"/><feBlend in="SourceGraphic" in2="effect1_dropShadow" result="shape"/></filter><filter id="filter12_d" x="1386" y="792" width="34" height="32" filterUnits="userSpaceOnUse" color-interpolation-filters="sRGB"><feFlood flood-opacity="0" result="BackgroundImageFix"/><feColorMatrix in="SourceAlpha" values="0 0 0 0 0 0 0 0 0 0 0 0 0 0 0 0 0 0 127 0" result="hardAlpha"/><feOffset dy="4"/><feGaussianBlur stdDeviation="2"/><feComposite in2="hardAlpha" operator="out"/><feColorMatrix values="0 0 0 0 0 0 0 0 0 0 0 0 0 0 0 0 0 0 0.25 0"/><feBlend in2="BackgroundImageFix" result="effect1_dropShadow"/><feBlend in="SourceGraphic" in2="effect1_dropShadow" result="shape"/></filter><filter id="filter13_d" x="372" y="907" width="67" height="66.0648" filterUnits="userSpaceOnUse" color-interpolation-filters="sRGB"><feFlood flood-opacity="0" result="BackgroundImageFix"/><feColorMatrix in="SourceAlpha" values="0 0 0 0 0 0 0 0 0 0 0 0 0 0 0 0 0 0 127 0" result="hardAlpha"/><feOffset dy="4"/><feGaussianBlur stdDeviation="2"/><feComposite in2="hardAlpha" operator="out"/><feColorMatrix values="0 0 0 0 0 0 0 0 0 0 0 0 0 0 0 0 0 0 0.25 0"/><feBlend in2="BackgroundImageFix" result="effect1_dropShadow"/><feBlend in="SourceGraphic" in2="effect1_dropShadow" result="shape"/></filter><filter id="filter14_d" x="1133.44" y="919.834" width="65.5674" height="64.5725" filterUnits="userSpaceOnUse" color-interpolation-filters="sRGB"><feFlood flood-opacity="0" result="BackgroundImageFix"/><feColorMatrix in="SourceAlpha" values="0 0 0 0 0 0 0 0 0 0 0 0 0 0 0 0 0 0 127 0" result="hardAlpha"/><feOffset dy="4"/><feGaussianBlur stdDeviation="2"/><feComposite in2="hardAlpha" operator="out"/><feColorMatrix values="0 0 0 0 0 0 0 0 0 0 0 0 0 0 0 0 0 0 0.25 0"/><feBlend in2="BackgroundImageFix" result="effect1_dropShadow"/><feBlend in="SourceGraphic" in2="effect1_dropShadow" result="shape"/></filter><filter id="filter15_d" x="28" y="567" width="88" height="59" filterUnits="userSpaceOnUse" color-interpolation-filters="sRGB"><feFlood flood-opacity="0" result="BackgroundImageFix"/><feColorMatrix in="SourceAlpha" values="0 0 0 0 0 0 0 0 0 0 0 0 0 0 0 0 0 0 127 0" result="hardAlpha"/><feOffset dy="4"/><feGaussianBlur stdDeviation="2"/><feComposite in2="hardAlpha" operator="out"/><feColorMatrix values="0 0 0 0 0 0 0 0 0 0 0 0 0 0 0 0 0 0 0.25 0"/><feBlend in2="BackgroundImageFix" result="effect1_dropShadow"/><feBlend in="SourceGraphic" in2="effect1_dropShadow" result="shape"/></filter><filter id="filter16_d" x="1332" y="961" width="88" height="59" filterUnits="userSpaceOnUse" color-interpolation-filters="sRGB"><feFlood flood-opacity="0" result="BackgroundImageFix"/><feColorMatrix in="SourceAlpha" values="0 0 0 0 0 0 0 0 0 0 0 0 0 0 0 0 0 0 127 0" result="hardAlpha"/><feOffset dy="4"/><feGaussianBlur stdDeviation="2"/><feComposite in2="hardAlpha" operator="out"/><feColorMatrix values="0 0 0 0 0 0 0 0 0 0 0 0 0 0 0 0 0 0 0.25 0"/><feBlend in2="BackgroundImageFix" result="effect1_dropShadow"/><feBlend in="SourceGraphic" in2="effect1_dropShadow" result="shape"/></filter><filter id="filter17_d" x="714" y="706" width="88" height="59" filterUnits="userSpaceOnUse" color-interpolation-filters="sRGB"><feFlood flood-opacity="0" result="BackgroundImageFix"/><feColorMatrix in="SourceAlpha" values="0 0 0 0 0 0 0 0 0 0 0 0 0 0 0 0 0 0 127 0" result="hardAlpha"/><feOffset dy="4"/><feGaussianBlur stdDeviation="2"/><feComposite in2="hardAlpha" operator="out"/><feColorMatrix values="0 0 0 0 0 0 0 0 0 0 0 0 0 0 0 0 0 0 0.25 0"/><feBlend in2="BackgroundImageFix" result="effect1_dropShadow"/><feBlend in="SourceGraphic" in2="effect1_dropShadow" result="shape"/></filter><filter id="filter18_d" x="1262" y="418" width="88" height="59" filterUnits="userSpaceOnUse" color-interpolation-filters="sRGB"><feFlood flood-opacity="0" result="BackgroundImageFix"/><feColorMatrix in="SourceAlpha" values="0 0 0 0 0 0 0 0 0 0 0 0 0 0 0 0 0 0 127 0" result="hardAlpha"/><feOffset dy="4"/><feGaussianBlur stdDeviation="2"/><feComposite in2="hardAlpha" operator="out"/><feColorMatrix values="0 0 0 0 0 0 0 0 0 0 0 0 0 0 0 0 0 0 0.25 0"/><feBlend in2="BackgroundImageFix" result="effect1_dropShadow"/><feBlend in="SourceGraphic" in2="effect1_dropShadow" result="shape"/></filter><filter id="filter19_d" x="447" y="959" width="88" height="59" filterUnits="userSpaceOnUse" color-interpolation-filters="sRGB"><feFlood flood-opacity="0" result="BackgroundImageFix"/><feColorMatrix in="SourceAlpha" values="0 0 0 0 0 0 0 0 0 0 0 0 0 0 0 0 0 0 127 0" result="hardAlpha"/><feOffset dy="4"/><feGaussianBlur stdDeviation="2"/><feComposite in2="hardAlpha" operator="out"/><feColorMatrix values="0 0 0 0 0 0 0 0 0 0 0 0 0 0 0 0 0 0 0.25 0"/><feBlend in2="BackgroundImageFix" result="effect1_dropShadow"/><feBlend in="SourceGraphic" in2="effect1_dropShadow" result="shape"/></filter><filter id="filter20_d" x="656" y="443" width="127.429" height="135.905" filterUnits="userSpaceOnUse" color-interpolation-filters="sRGB"><feFlood flood-opacity="0" result="BackgroundImageFix"/><feColorMatrix in="SourceAlpha" values="0 0 0 0 0 0 0 0 0 0 0 0 0 0 0 0 0 0 127 0" result="hardAlpha"/><feOffset dy="10"/><feGaussianBlur stdDeviation="2"/><feComposite in2="hardAlpha" operator="out"/><feColorMatrix values="0 0 0 0 0 0 0 0 0 0 0 0 0 0 0 0 0 0 0.25 0"/><feBlend in2="BackgroundImageFix" result="effect1_dropShadow"/><feBlend in="SourceGraphic" in2="effect1_dropShadow" result="shape"/></filter><filter id="filter21_d" x="1201" y="747" width="125.995" height="135.471" filterUnits="userSpaceOnUse" color-interpolation-filters="sRGB"><feFlood flood-opacity="0" result="BackgroundImageFix"/><feColorMatrix in="SourceAlpha" values="0 0 0 0 0 0 0 0 0 0 0 0 0 0 0 0 0 0 127 0" result="hardAlpha"/><feOffset dy="10"/><feGaussianBlur stdDeviation="2"/><feComposite in2="hardAlpha" operator="out"/><feColorMatrix values="0 0 0 0 0 0 0 0 0 0 0 0 0 0 0 0 0 0 0.25 0"/><feBlend in2="BackgroundImageFix" result="effect1_dropShadow"/><feBlend in="SourceGraphic" in2="effect1_dropShadow" result="shape"/></filter><clipPath id="clip0"><path fill="#fff" d="M0 0h1440v1024H0z"/></clipPath></defs></svg>