<svg width="1440" height="954" viewBox="0 0 1440 954" fill="none" xmlns="http://www.w3.org/2000/svg">
<g clip-path="url(#clip0_1:2)">
<rect width="1440" height="954" fill="#E5E5E9"/>
<path d="M187.667 746.325C62.7273 670.972 -54 512 -54 512V1091H1483C1483 1091 1151.13 1041.36 948.111 991.548C815.608 959.04 743.295 936.363 617.123 896.795L613 895.502C442.853 842.145 325.212 829.28 187.667 746.325Z" fill="#CBCBCB" fill-opacity="0.78"/>
<path d="M248.459 652.344C104.498 565.408 -30 382 -30 382V1050H1741C1741 1050 1358.6 992.725 1124.68 935.261C972 897.756 888.678 871.593 743.295 825.943L738.547 824.452C542.496 762.893 406.945 748.051 248.459 652.344Z" fill="#BDB9B9" fill-opacity="0.56"/>
<path d="M238.704 535.508C105.474 444.018 -19 251 -19 251V954H1620C1620 954 1266.1 893.724 1049.61 833.249C908.317 793.779 831.206 766.245 696.659 718.203L692.264 716.634C510.825 651.85 385.378 636.23 238.704 535.508Z" fill="#D6DCE0" fill-opacity="0.53"/>
</g>
<defs>
<clipPath id="clip0_1:2">
<rect width="1440" height="954" fill="white"/>
</clipPath>
</defs>
</svg>
