<svg width="1440" height="1024" viewBox="0 0 1440 1024" fill="none" xmlns="http://www.w3.org/2000/svg">
<g clip-path="url(#clip0_1:2)">
<rect width="1440" height="1024" fill="#E0E4EB"/>
<path d="M290.61 786.779C113.484 715.46 -52 565 -52 565V1113H2127C2127 1113 1656.51 1066.01 1368.69 1018.87C1180.84 988.105 1078.32 966.642 899.446 929.193L893.604 927.969C652.386 877.469 485.608 865.293 290.61 786.779Z" fill="#1E252B" fill-opacity="0.53"/>
<path d="M241.459 668.607C97.4985 585.446 -37 410 -37 410V1049H1734C1734 1049 1351.6 994.211 1117.68 939.242C965 903.365 881.678 878.338 736.294 834.669L731.547 833.244C535.496 774.357 399.945 760.159 241.459 668.607Z" fill="#526C7D" fill-opacity="0.53"/>
<path d="M252.625 567.299C115.521 465.913 -13.6774 250.549 -13.6774 250.549L-6.4502 1039.18L1668.63 1023.83C1668.63 1023.83 1306.33 959.526 1084.45 893.713C939.634 850.759 860.542 820.593 722.541 767.96L718.031 766.24C531.932 695.264 403.563 678.916 252.625 567.299Z" fill="#94C2E1" fill-opacity="0.53"/>
<g clip-path="url(#clip1_1:2)">
<g filter="url(#filter0_i_1:2)">
<path d="M337.96 120.153L328.584 131.89" stroke="#585656" stroke-opacity="0.77"/>
<path d="M341.115 122.673L331.739 134.41" stroke="#585656" stroke-opacity="0.77"/>
<path d="M334.806 117.633L325.43 129.37" stroke="#585656" stroke-opacity="0.77"/>
<path d="M344.269 125.193L334.893 136.93" stroke="#585656" stroke-opacity="0.77"/>
<path d="M347.424 127.712L338.048 139.45" stroke="#585656" stroke-opacity="0.77"/>
<path d="M350.578 130.232L341.202 141.97" stroke="#585656" stroke-opacity="0.77"/>
<path d="M353.733 132.752L344.357 144.489" stroke="#585656" stroke-opacity="0.77"/>
</g>
<path d="M337.05 116.036C349.711 114.098 353.534 117.252 354.729 130.158" stroke="#808080" stroke-opacity="0.54"/>
<path d="M332.308 115.869C333.305 114.621 335.166 114.451 336.464 115.488L354.983 130.281C356.282 131.319 356.526 133.171 355.53 134.419L346.77 145.385C345.773 146.633 343.912 146.803 342.614 145.766L324.095 130.973C322.796 129.935 322.551 128.083 323.548 126.835L332.308 115.869Z" fill="#BCBABA" fill-opacity="0.35"/>
<path d="M332.699 116.181C333.512 115.164 335.054 115.002 336.152 115.879L354.671 130.672C355.769 131.549 355.952 133.089 355.139 134.106L346.379 145.073C345.566 146.09 344.024 146.252 342.926 145.375L324.407 130.582C323.309 129.705 323.126 128.165 323.939 127.147L332.699 116.181Z" stroke="#585656" stroke-opacity="0.77"/>
<path d="M352.486 112.763C352.142 113.495 347.721 114.702 347.882 116.727C347.217 118.143 348.42 119.482 349.165 119.834C349.911 120.186 350.763 120.233 351.533 119.964C352.303 119.695 352.929 119.133 353.272 118.401L352.629 118.097C352.364 118.662 351.522 118.925 350.928 119.133C350.334 119.34 349.804 118.602 349.229 118.331C348.654 118.06 348.914 117.214 349.248 116.502C351.565 114.725 354.779 115.193 355.044 114.628L352.486 112.763Z" fill="#9A9292"/>
</g>
<g clip-path="url(#clip2_1:2)">
<g filter="url(#filter1_i_1:2)">
<path d="M373.525 558.218L380.907 571.302" stroke="#585656" stroke-opacity="0.77"/>
<path d="M377.041 556.234L384.424 569.318" stroke="#585656" stroke-opacity="0.77"/>
<path d="M370.009 560.203L377.391 573.286" stroke="#585656" stroke-opacity="0.77"/>
<path d="M380.557 554.25L387.94 567.333" stroke="#585656" stroke-opacity="0.77"/>
<path d="M384.074 552.266L391.456 565.349" stroke="#585656" stroke-opacity="0.77"/>
<path d="M387.59 550.282L394.972 563.365" stroke="#585656" stroke-opacity="0.77"/>
<path d="M391.106 548.298L398.489 561.381" stroke="#585656" stroke-opacity="0.77"/>
</g>
<path d="M369.366 557.524C372.3 545.056 376.655 542.689 389.072 546.404" stroke="#808080" stroke-opacity="0.54"/>
<path d="M367.439 561.859C366.654 560.469 367.192 558.679 368.639 557.863L389.281 546.215C390.729 545.398 392.539 545.863 393.323 547.254L400.221 559.478C401.006 560.868 400.468 562.658 399.021 563.475L378.379 575.122C376.931 575.939 375.121 575.474 374.337 574.084L367.439 561.859Z" fill="#BCBABA" fill-opacity="0.35"/>
<path d="M367.874 561.614C367.235 560.48 367.661 558.989 368.885 558.298L389.527 546.65C390.751 545.96 392.248 546.366 392.888 547.499L399.786 559.724C400.425 560.857 399.999 562.349 398.775 563.039L378.133 574.687C376.909 575.378 375.412 574.972 374.772 573.838L367.874 561.614Z" stroke="#585656" stroke-opacity="0.77"/>
<path d="M372.1 541.984C372.65 542.576 372.118 547.128 374.056 547.735C375.121 548.881 376.812 548.266 377.417 547.706C378.022 547.146 378.384 546.374 378.422 545.559C378.461 544.744 378.173 543.953 377.623 543.361L377.101 543.845C377.525 544.301 377.455 545.181 377.425 545.809C377.396 546.438 376.513 546.654 376.047 547.086C375.58 547.517 374.893 546.96 374.358 546.385C373.575 543.571 375.21 540.765 374.786 540.308L372.1 541.984Z" fill="#9A9292"/>
</g>
<g clip-path="url(#clip3_1:2)">
<g filter="url(#filter2_i_1:2)">
<path d="M674.718 691.532L671.28 707.229" stroke="#585656" stroke-opacity="0.77"/>
<path d="M678.649 692.524L675.21 708.221" stroke="#585656" stroke-opacity="0.77"/>
<path d="M670.788 690.54L667.349 706.237" stroke="#585656" stroke-opacity="0.77"/>
<path d="M682.579 693.516L679.14 709.213" stroke="#585656" stroke-opacity="0.77"/>
<path d="M686.509 694.508L683.07 710.205" stroke="#585656" stroke-opacity="0.77"/>
<path d="M690.439 695.5L687 711.197" stroke="#585656" stroke-opacity="0.77"/>
<path d="M694.369 696.492L690.93 712.189" stroke="#585656" stroke-opacity="0.77"/>
</g>
<path d="M672.131 687.959C682.738 680.253 687.544 681.553 694.157 693.518" stroke="#808080" stroke-opacity="0.54"/>
<path d="M667.776 689.979C668.141 688.31 669.749 687.289 671.367 687.697L694.439 693.521C696.057 693.929 697.073 695.613 696.707 697.281L693.494 711.947C693.129 713.615 691.521 714.637 689.903 714.228L666.831 708.405C665.213 707.996 664.197 706.313 664.563 704.645L667.776 689.979Z" fill="#BCBABA" fill-opacity="0.35"/>
<path d="M668.26 690.101C668.569 688.692 669.92 687.848 671.26 688.186L694.332 694.009C695.672 694.347 696.531 695.749 696.223 697.159L693.01 711.825C692.701 713.234 691.35 714.078 690.01 713.74L666.938 707.916C665.598 707.578 664.739 706.176 665.047 704.767L668.26 690.101Z" stroke="#585656" stroke-opacity="0.77"/>
<path d="M684.673 677.682C684.676 678.55 681.2 681.755 682.213 683.644C682.22 685.324 683.881 686.069 684.705 686.067C685.529 686.065 686.319 685.718 686.899 685.103C687.48 684.488 687.804 683.655 687.801 682.787L687.089 682.789C687.092 683.458 686.444 684.102 685.996 684.576C685.549 685.05 684.754 684.579 684.118 684.58C683.482 684.582 683.354 683.642 683.351 682.798C684.682 680.008 687.787 678.983 687.784 678.314L684.673 677.682Z" fill="#9A9292"/>
</g>
<g clip-path="url(#clip4_1:2)">
<g filter="url(#filter3_i_1:2)">
<path d="M1084.8 574.386L1093.02 587.343" stroke="#585656" stroke-opacity="0.77"/>
<path d="M1087.89 572.133L1096.1 585.09" stroke="#585656" stroke-opacity="0.77"/>
<path d="M1081.72 576.639L1089.93 589.596" stroke="#585656" stroke-opacity="0.77"/>
<path d="M1090.98 569.88L1099.19 582.837" stroke="#585656" stroke-opacity="0.77"/>
<path d="M1094.06 567.627L1102.27 580.584" stroke="#585656" stroke-opacity="0.77"/>
<path d="M1097.15 565.374L1105.36 578.331" stroke="#585656" stroke-opacity="0.77"/>
<path d="M1100.23 563.121L1108.44 576.078" stroke="#585656" stroke-opacity="0.77"/>
</g>
<path d="M1080.85 573.932C1082.34 560.966 1086.17 558.268 1098.14 561.306" stroke="#808080" stroke-opacity="0.54"/>
<path d="M1079.49 578.498C1078.61 577.121 1078.93 575.252 1080.21 574.325L1098.32 561.099C1099.59 560.171 1101.33 560.536 1102.2 561.913L1109.87 574.019C1110.74 575.396 1110.42 577.264 1109.15 578.192L1091.04 591.418C1089.77 592.345 1088.03 591.981 1087.16 590.604L1079.49 578.498Z" fill="#BCBABA" fill-opacity="0.35"/>
<path d="M1079.89 578.203C1079.15 577.045 1079.44 575.502 1080.47 574.747L1098.59 561.521C1099.62 560.766 1101.06 561.049 1101.8 562.208L1109.47 574.314C1110.2 575.472 1109.92 577.015 1108.88 577.769L1090.77 590.995C1089.74 591.75 1088.29 591.467 1087.56 590.309L1079.89 578.203Z" stroke="#585656" stroke-opacity="0.77"/>
<path d="M1081.84 557.828C1082.42 558.401 1082.38 563.101 1084.25 563.604C1085.36 564.713 1086.88 563.977 1087.39 563.365C1087.89 562.753 1088.15 561.939 1088.11 561.101C1088.06 560.263 1087.71 559.47 1087.14 558.897L1086.7 559.425C1087.14 559.867 1087.17 560.774 1087.2 561.42C1087.24 562.066 1086.44 562.342 1086.04 562.814C1085.65 563.286 1084.95 562.757 1084.39 562.2C1083.38 559.364 1084.63 556.385 1084.18 555.943L1081.84 557.828Z" fill="#9A9292"/>
</g>
<g clip-path="url(#clip5_1:2)">
<g filter="url(#filter4_i_1:2)">
<path d="M981.122 296.439L989.333 309.395" stroke="#585656" stroke-opacity="0.77"/>
<path d="M984.207 294.186L992.418 307.142" stroke="#585656" stroke-opacity="0.77"/>
<path d="M978.036 298.692L986.247 311.648" stroke="#585656" stroke-opacity="0.77"/>
<path d="M987.293 291.933L995.504 304.89" stroke="#585656" stroke-opacity="0.77"/>
<path d="M990.379 289.68L998.59 302.637" stroke="#585656" stroke-opacity="0.77"/>
<path d="M993.464 287.427L1001.68 300.384" stroke="#585656" stroke-opacity="0.77"/>
<path d="M996.55 285.174L1004.76 298.131" stroke="#585656" stroke-opacity="0.77"/>
</g>
<path d="M977.167 295.985C978.655 283.019 982.486 280.321 994.459 283.359" stroke="#808080" stroke-opacity="0.54"/>
<path d="M975.802 300.55C974.929 299.173 975.252 297.305 976.522 296.377L994.636 283.152C995.906 282.224 997.644 282.588 998.516 283.966L1006.19 296.072C1007.06 297.449 1006.74 299.317 1005.47 300.245L987.354 313.47C986.084 314.398 984.347 314.034 983.474 312.656L975.802 300.55Z" fill="#BCBABA" fill-opacity="0.35"/>
<path d="M976.206 300.256C975.472 299.097 975.756 297.555 976.79 296.8L994.904 283.574C995.937 282.819 997.379 283.102 998.113 284.26L1005.78 296.366C1006.52 297.525 1006.23 299.067 1005.2 299.822L987.087 313.048C986.053 313.803 984.612 313.52 983.878 312.362L976.206 300.256Z" stroke="#585656" stroke-opacity="0.77"/>
<path d="M978.159 279.881C978.733 280.454 978.693 285.154 980.565 285.657C981.675 286.766 983.193 286.03 983.702 285.418C984.211 284.806 984.471 283.991 984.425 283.153C984.379 282.316 984.031 281.523 983.458 280.95L983.019 281.478C983.461 281.92 983.484 282.826 983.519 283.472C983.554 284.119 982.752 284.395 982.36 284.867C981.967 285.339 981.269 284.81 980.711 284.253C979.697 281.417 980.943 278.437 980.501 277.995L978.159 279.881Z" fill="#9A9292"/>
</g>
<g clip-path="url(#clip6_1:2)">
<g filter="url(#filter5_i_1:2)">
<path d="M1247.42 151.375L1256.44 164.266" stroke="#585656" stroke-opacity="0.77"/>
<path d="M1250.65 148.772L1259.67 161.663" stroke="#585656" stroke-opacity="0.77"/>
<path d="M1244.19 153.979L1253.22 166.869" stroke="#585656" stroke-opacity="0.77"/>
<path d="M1253.87 146.169L1262.9 159.059" stroke="#585656" stroke-opacity="0.77"/>
<path d="M1257.1 143.565L1266.13 156.456" stroke="#585656" stroke-opacity="0.77"/>
<path d="M1260.33 140.962L1269.35 153.852" stroke="#585656" stroke-opacity="0.77"/>
<path d="M1263.56 138.358L1272.58 151.249" stroke="#585656" stroke-opacity="0.77"/>
</g>
<path d="M1243.21 151.218C1244.49 137.539 1248.5 134.411 1261.29 136.628" stroke="#808080" stroke-opacity="0.54"/>
<path d="M1241.86 156.102C1240.9 154.732 1241.2 152.752 1242.53 151.68L1261.48 136.397C1262.81 135.325 1264.66 135.567 1265.62 136.937L1274.05 148.981C1275.01 150.351 1274.71 152.331 1273.38 153.402L1254.44 168.686C1253.11 169.758 1251.25 169.516 1250.29 168.146L1241.86 156.102Z" fill="#BCBABA" fill-opacity="0.35"/>
<path d="M1242.25 155.788C1241.45 154.652 1241.69 152.994 1242.82 152.09L1261.76 136.806C1262.89 135.902 1264.44 136.115 1265.23 137.251L1273.66 149.295C1274.46 150.431 1274.22 152.088 1273.1 152.993L1254.15 168.276C1253.03 169.181 1251.48 168.968 1250.68 167.832L1242.25 155.788Z" stroke="#585656" stroke-opacity="0.77"/>
<path d="M1243.89 134.298C1244.51 134.851 1244.58 139.77 1246.58 140.145C1247.78 141.215 1249.38 140.324 1249.91 139.643C1250.44 138.963 1250.69 138.09 1250.63 137.217C1250.56 136.345 1250.17 135.544 1249.55 134.991L1249.09 135.578C1249.57 136.005 1249.62 136.951 1249.67 137.624C1249.72 138.297 1248.88 138.65 1248.47 139.175C1248.06 139.7 1247.31 139.203 1246.7 138.665C1245.56 135.781 1246.82 132.565 1246.34 132.138L1243.89 134.298Z" fill="#9A9292"/>
</g>
<g clip-path="url(#clip7_1:2)">
<g filter="url(#filter6_i_1:2)">
<path d="M500.96 330.764L491.584 343.362" stroke="#585656" stroke-opacity="0.77"/>
<path d="M504.115 333.468L494.739 346.067" stroke="#585656" stroke-opacity="0.77"/>
<path d="M497.806 328.059L488.43 340.657" stroke="#585656" stroke-opacity="0.77"/>
<path d="M507.269 336.173L497.893 348.772" stroke="#585656" stroke-opacity="0.77"/>
<path d="M510.424 338.878L501.048 351.476" stroke="#585656" stroke-opacity="0.77"/>
<path d="M513.578 341.583L504.202 354.181" stroke="#585656" stroke-opacity="0.77"/>
<path d="M516.733 344.287L507.357 356.886" stroke="#585656" stroke-opacity="0.77"/>
</g>
<path d="M500.05 326.345C512.711 324.264 516.534 327.65 517.729 341.503" stroke="#808080" stroke-opacity="0.54"/>
<path d="M495.308 326.165C496.305 324.826 498.166 324.643 499.464 325.757L517.983 341.635C519.282 342.749 519.526 344.737 518.53 346.076L509.77 357.847C508.773 359.186 506.912 359.369 505.614 358.256L487.095 342.377C485.796 341.264 485.551 339.276 486.548 337.936L495.308 326.165Z" fill="#BCBABA" fill-opacity="0.35"/>
<path d="M495.688 326.491C496.513 325.382 498.068 325.217 499.166 326.158L517.684 342.036C518.782 342.978 518.975 344.642 518.15 345.751L509.39 357.522C508.565 358.63 507.01 358.796 505.912 357.855L487.394 341.976C486.296 341.035 486.103 339.37 486.928 338.262L495.688 326.491Z" stroke="#585656" stroke-opacity="0.77"/>
<path d="M515.486 322.832C515.142 323.617 510.721 324.913 510.882 327.086C510.217 328.607 511.42 330.044 512.165 330.422C512.911 330.799 513.763 330.849 514.533 330.561C515.303 330.272 515.929 329.669 516.272 328.883L515.629 328.557C515.364 329.163 514.522 329.446 513.928 329.669C513.334 329.891 512.804 329.099 512.229 328.808C511.654 328.517 511.914 327.609 512.248 326.845C514.565 324.937 517.779 325.44 518.044 324.834L515.486 322.832Z" fill="#9A9292"/>
</g>
<circle cx="254" cy="290" r="8" fill="#C4C4C4"/>
<circle cx="64" cy="151" r="8" fill="#C4C4C4"/>
<circle cx="872" cy="75" r="8" fill="#C4C4C4"/>
<circle cx="716" cy="592" r="8" fill="#C4C4C4"/>
<circle cx="749" cy="306" r="8" fill="#C4C4C4"/>
<circle cx="1294" cy="274" r="8" fill="#C4C4C4"/>
<circle cx="1347" cy="585" r="8" fill="#C4C4C4"/>
<circle cx="902" cy="810" r="8" fill="#C4C4C4"/>
<g clip-path="url(#clip8_1:2)">
<g filter="url(#filter7_i_1:2)">
<path d="M1186.77 830.538L1157.85 793.169M1240.32 903.922L1186.77 830.538L1240.32 903.922ZM1135.5 768.504L1102.57 751.682L1116.81 801.401L1135.5 768.504ZM1135.5 768.504L1116.81 801.401L1135.5 768.504ZM1135.5 768.504L1157.85 793.169L1135.5 768.504ZM1116.81 801.401L1203.59 917.398L1215.47 869.863L1177.04 882.113L1186.77 830.538L1116.81 801.401ZM1116.81 801.401L1157.85 793.169L1116.81 801.401ZM1186.77 830.538L1144.26 838.551L1157.85 793.169L1186.77 830.538Z" stroke="black" stroke-width="4" stroke-linejoin="bevel"/>
<path d="M1361.5 847.439L1377.17 829.311M1332.26 883.577L1361.5 847.439L1332.26 883.577ZM1389.03 817.887L1405.42 813.034L1395.95 841.184L1389.03 817.887ZM1389.03 817.887L1395.95 841.184L1389.03 817.887ZM1389.03 817.887L1377.17 829.311L1389.03 817.887ZM1395.95 841.184L1348.73 897.954L1345.83 866.804L1363.17 880.71L1361.5 847.439L1395.95 841.184ZM1395.95 841.184L1377.17 829.311L1395.95 841.184ZM1361.5 847.439L1380.99 859.422L1377.17 829.311L1361.5 847.439Z" stroke="black" stroke-width="4"/>
<path d="M1179.65 936.103H1319.17V969.466H1179.65V936.103Z" fill="#1E2F3F"/>
<path d="M1164.74 962.052H1363.19C1378.16 962.052 1390.29 975.329 1390.29 991.707V995.414C1390.29 1011.79 1378.16 1025.07 1363.19 1025.07H1164.74C1149.78 1025.07 1137.65 1011.79 1137.65 995.414V991.707C1137.65 975.329 1149.78 962.052 1164.74 962.052Z" fill="#3A5976"/>
<path d="M1327.3 851.586C1327.3 847.492 1324.27 844.172 1320.52 844.172H1229.56C1227.54 844.172 1225.63 845.153 1224.35 846.85L1169.22 919.505C1165.56 924.336 1168.7 931.655 1174.43 931.655H1320.52C1324.27 931.655 1327.3 928.336 1327.3 924.241V851.586Z" fill="#3A5976"/>
<path d="M1307.66 858.259C1307.66 856.212 1306.14 854.552 1304.27 854.552H1253.09C1252.44 854.552 1251.8 854.759 1251.25 855.149L1225.14 873.683C1222.31 875.692 1223.61 880.5 1226.99 880.5H1304.27C1306.14 880.5 1307.66 878.84 1307.66 876.793V858.259Z" fill="#1E2F3F"/>
<path d="M1307.66 890.879C1307.66 889.242 1306.44 887.914 1304.95 887.914H1217.89C1217.2 887.914 1216.53 888.204 1216.03 888.726L1185.26 920.605C1183.48 922.449 1184.68 925.724 1187.13 925.724H1304.95C1306.44 925.724 1307.66 924.396 1307.66 922.759V890.879Z" fill="#1E2F3F"/>
<path d="M1166.1 931.655H1373.35V939.81H1166.1V931.655Z" fill="#0B0A0A"/>
<path d="M1343.55 910.155H1396.38V918.31H1343.55V910.155Z" fill="#0B0A0A"/>
<path d="M1418.04 897.552C1405.79 897.552 1385.55 897.552 1385.55 897.552V931.655C1385.55 931.655 1406.77 931.655 1418.04 931.655C1429.31 931.655 1430.29 897.552 1418.04 897.552Z" fill="#3A5976"/>
<path d="M1369.76 888.368C1363.27 878.631 1334.65 882.43 1323.57 884.316C1321 884.753 1319.17 887.188 1319.17 890.034V926.466C1319.17 929.741 1321.6 932.397 1324.59 932.397H1365.64C1368.07 932.397 1370.2 930.63 1370.73 928.03C1372.61 918.874 1376 897.739 1369.76 888.368Z" fill="#3A5976"/>
<path d="M1364.32 894.171H1324.4" stroke="black" stroke-width="3"/>
<path d="M1364.32 900.819H1324.4" stroke="black" stroke-width="3"/>
<path d="M1364.32 906.912H1324.4" stroke="black" stroke-width="3"/>
<path d="M1364.32 912.453H1324.4" stroke="black" stroke-width="3"/>
<path d="M1364.32 917.992H1324.4" stroke="black" stroke-width="3"/>
<path d="M1364.32 923.533H1324.4" stroke="black" stroke-width="3"/>
<path d="M1355.41 1012.47C1345.49 1012.47 1337.46 1004.17 1337.46 993.931C1337.46 983.695 1345.49 975.397 1355.41 975.397C1365.32 975.397 1373.35 983.695 1373.35 993.931C1373.35 1004.17 1365.32 1012.47 1355.41 1012.47Z" fill="#C4C4C4"/>
<path d="M1355.41 1012.47C1345.49 1012.47 1337.46 1004.17 1337.46 993.931C1337.46 983.695 1345.49 975.397 1355.41 975.397C1365.32 975.397 1373.35 983.695 1373.35 993.931C1373.35 1004.17 1365.32 1012.47 1355.41 1012.47Z" fill="#C4C4C4"/>
<path d="M1303.59 1008.02C1299.85 1008.02 1296.82 1004.7 1296.82 1000.6C1296.82 996.509 1299.85 993.19 1303.59 993.19C1307.33 993.19 1310.36 996.509 1310.36 1000.6C1310.36 1004.7 1307.33 1008.02 1303.59 1008.02Z" fill="#C4C4C4"/>
<path d="M1275.15 1008.02C1271.4 1008.02 1268.37 1004.7 1268.37 1000.6C1268.37 996.509 1271.4 993.19 1275.15 993.19C1278.89 993.19 1281.92 996.509 1281.92 1000.6C1281.92 1004.7 1278.89 1008.02 1275.15 1008.02Z" fill="#C4C4C4"/>
<path d="M1247.38 1008.02C1243.63 1008.02 1240.6 1004.7 1240.6 1000.6C1240.6 996.509 1243.63 993.19 1247.38 993.19C1251.12 993.19 1254.15 996.509 1254.15 1000.6C1254.15 1004.7 1251.12 1008.02 1247.38 1008.02Z" fill="#C4C4C4"/>
<path d="M1222.32 1008.02C1218.57 1008.02 1215.54 1004.7 1215.54 1000.6C1215.54 996.509 1218.57 993.19 1222.32 993.19C1226.06 993.19 1229.09 996.509 1229.09 1000.6C1229.09 1004.7 1226.06 1008.02 1222.32 1008.02Z" fill="#C4C4C4"/>
<path d="M1175.24 1012.47C1165.33 1012.47 1157.29 1004.17 1157.29 993.931C1157.29 983.695 1165.33 975.397 1175.24 975.397C1185.16 975.397 1193.19 983.695 1193.19 993.931C1193.19 1004.17 1185.16 1012.47 1175.24 1012.47Z" fill="#C4C4C4"/>
<path d="M1100.4 766.328C1091.05 766.328 1083.47 758.195 1083.47 748.164C1083.47 738.132 1091.05 730 1100.4 730C1109.75 730 1117.33 738.132 1117.33 748.164C1117.33 758.195 1109.75 766.328 1100.4 766.328Z" fill="#C4C4C4"/>
<path d="M1100.74 758.172C1096.06 758.172 1092.27 753.691 1092.27 748.164C1092.27 742.636 1096.06 738.155 1100.74 738.155C1105.42 738.155 1109.21 742.636 1109.21 748.164C1109.21 753.691 1105.42 758.172 1100.74 758.172Z" fill="black"/>
<path d="M1406.88 823.414C1400.33 823.414 1395.03 817.605 1395.03 810.44C1395.03 803.274 1400.33 797.466 1406.88 797.466C1413.43 797.466 1418.73 803.274 1418.73 810.44C1418.73 817.605 1413.43 823.414 1406.88 823.414Z" fill="#C4C4C4"/>
<path d="M1407.22 817.483C1403.85 817.483 1401.12 814.329 1401.12 810.44C1401.12 806.55 1403.85 803.397 1407.22 803.397C1410.59 803.397 1413.32 806.55 1413.32 810.44C1413.32 814.329 1410.59 817.483 1407.22 817.483Z" fill="black"/>
</g>
<line x1="1085.5" y1="931.96" x2="1099.5" y2="757.96" stroke="black"/>
<path d="M1397.44 804.179L1115.87 739.808M1410.38 897.794L1412.38 823.794" stroke="black"/>
<g filter="url(#filter8_i_1:2)">
<path d="M1075.36 955.34L1075.45 977.138" stroke="#585656" stroke-opacity="0.77"/>
<path d="M1081.07 955.315L1081.17 977.113" stroke="#585656" stroke-opacity="0.77"/>
<path d="M1069.64 955.365L1069.74 977.163" stroke="#585656" stroke-opacity="0.77"/>
<path d="M1086.78 955.29L1086.88 977.088" stroke="#585656" stroke-opacity="0.77"/>
<path d="M1092.5 955.265L1092.59 977.063" stroke="#585656" stroke-opacity="0.77"/>
<path d="M1098.21 955.24L1098.31 977.038" stroke="#585656" stroke-opacity="0.77"/>
<path d="M1103.93 955.215L1104.02 977.013" stroke="#585656" stroke-opacity="0.77"/>
</g>
<path d="M1070.7 951.517C1082.92 937.799 1089.94 937.883 1102.72 951.377" stroke="#808080" stroke-opacity="0.54"/>
<path d="M1065.32 955.645C1065.31 953.328 1067.21 951.442 1069.56 951.431L1103.11 951.285C1105.46 951.274 1107.38 953.144 1107.39 955.461L1107.48 975.828C1107.49 978.145 1105.59 980.031 1103.24 980.041L1069.69 980.188C1067.34 980.199 1065.42 978.329 1065.41 976.012L1065.32 955.645Z" fill="#BCBABA" fill-opacity="0.35"/>
<path d="M1065.82 955.643C1065.81 953.609 1067.48 951.94 1069.57 951.931L1103.11 951.785C1105.2 951.775 1106.88 953.43 1106.89 955.463L1106.98 975.83C1106.99 977.864 1105.32 979.532 1103.23 979.541L1069.69 979.688C1067.6 979.697 1065.92 978.043 1065.91 976.01L1065.82 955.643Z" stroke="#585656" stroke-opacity="0.77"/>
<path d="M1084.8 933.765C1085.07 934.905 1081.27 940.294 1083.25 942.435C1083.77 944.641 1086.29 945.059 1087.42 944.778C1088.55 944.496 1089.53 943.773 1090.14 942.768C1090.75 941.764 1090.94 940.559 1090.67 939.419L1089.69 939.662C1089.9 940.541 1089.21 941.605 1088.74 942.38C1088.27 943.155 1087.03 942.805 1086.15 943.022C1085.28 943.239 1084.81 942.046 1084.55 940.938C1085.52 936.82 1089.48 934.422 1089.27 933.543L1084.8 933.765Z" fill="#9A9292"/>
<ellipse cx="1086.5" cy="930" rx="4.5" ry="4" fill="#C4C4C4"/>
</g>
</g>
<defs>
<filter id="filter0_i_1:2" x="325.039" y="117.321" width="29.0841" height="31.4806" filterUnits="userSpaceOnUse" color-interpolation-filters="sRGB">
<feFlood flood-opacity="0" result="BackgroundImageFix"/>
<feBlend mode="normal" in="SourceGraphic" in2="BackgroundImageFix" result="shape"/>
<feColorMatrix in="SourceAlpha" type="matrix" values="0 0 0 0 0 0 0 0 0 0 0 0 0 0 0 0 0 0 127 0" result="hardAlpha"/>
<feOffset dy="10"/>
<feGaussianBlur stdDeviation="2"/>
<feComposite in2="hardAlpha" operator="arithmetic" k2="-1" k3="1"/>
<feColorMatrix type="matrix" values="0 0 0 0 0 0 0 0 0 0 0 0 0 0 0 0 0 0 0.25 0"/>
<feBlend mode="normal" in2="shape" result="effect1_innerShadow_1:2"/>
</filter>
<filter id="filter1_i_1:2" x="369.573" y="548.052" width="29.3507" height="29.4792" filterUnits="userSpaceOnUse" color-interpolation-filters="sRGB">
<feFlood flood-opacity="0" result="BackgroundImageFix"/>
<feBlend mode="normal" in="SourceGraphic" in2="BackgroundImageFix" result="shape"/>
<feColorMatrix in="SourceAlpha" type="matrix" values="0 0 0 0 0 0 0 0 0 0 0 0 0 0 0 0 0 0 127 0" result="hardAlpha"/>
<feOffset dy="10"/>
<feGaussianBlur stdDeviation="2"/>
<feComposite in2="hardAlpha" operator="arithmetic" k2="-1" k3="1"/>
<feColorMatrix type="matrix" values="0 0 0 0 0 0 0 0 0 0 0 0 0 0 0 0 0 0 0.25 0"/>
<feBlend mode="normal" in2="shape" result="effect1_innerShadow_1:2"/>
</filter>
<filter id="filter2_i_1:2" x="666.865" y="690.418" width="27.9894" height="25.8932" filterUnits="userSpaceOnUse" color-interpolation-filters="sRGB">
<feFlood flood-opacity="0" result="BackgroundImageFix"/>
<feBlend mode="normal" in="SourceGraphic" in2="BackgroundImageFix" result="shape"/>
<feColorMatrix in="SourceAlpha" type="matrix" values="0 0 0 0 0 0 0 0 0 0 0 0 0 0 0 0 0 0 127 0" result="hardAlpha"/>
<feOffset dy="10"/>
<feGaussianBlur stdDeviation="2"/>
<feComposite in2="hardAlpha" operator="arithmetic" k2="-1" k3="1"/>
<feColorMatrix type="matrix" values="0 0 0 0 0 0 0 0 0 0 0 0 0 0 0 0 0 0 0.25 0"/>
<feBlend mode="normal" in2="shape" result="effect1_innerShadow_1:2"/>
</filter>
<filter id="filter3_i_1:2" x="1081.32" y="562.827" width="27.5323" height="31.0639" filterUnits="userSpaceOnUse" color-interpolation-filters="sRGB">
<feFlood flood-opacity="0" result="BackgroundImageFix"/>
<feBlend mode="normal" in="SourceGraphic" in2="BackgroundImageFix" result="shape"/>
<feColorMatrix in="SourceAlpha" type="matrix" values="0 0 0 0 0 0 0 0 0 0 0 0 0 0 0 0 0 0 127 0" result="hardAlpha"/>
<feOffset dy="10"/>
<feGaussianBlur stdDeviation="2"/>
<feComposite in2="hardAlpha" operator="arithmetic" k2="-1" k3="1"/>
<feColorMatrix type="matrix" values="0 0 0 0 0 0 0 0 0 0 0 0 0 0 0 0 0 0 0.25 0"/>
<feBlend mode="normal" in2="shape" result="effect1_innerShadow_1:2"/>
</filter>
<filter id="filter4_i_1:2" x="977.632" y="284.879" width="27.5322" height="31.0639" filterUnits="userSpaceOnUse" color-interpolation-filters="sRGB">
<feFlood flood-opacity="0" result="BackgroundImageFix"/>
<feBlend mode="normal" in="SourceGraphic" in2="BackgroundImageFix" result="shape"/>
<feColorMatrix in="SourceAlpha" type="matrix" values="0 0 0 0 0 0 0 0 0 0 0 0 0 0 0 0 0 0 127 0" result="hardAlpha"/>
<feOffset dy="10"/>
<feGaussianBlur stdDeviation="2"/>
<feComposite in2="hardAlpha" operator="arithmetic" k2="-1" k3="1"/>
<feColorMatrix type="matrix" values="0 0 0 0 0 0 0 0 0 0 0 0 0 0 0 0 0 0 0.25 0"/>
<feBlend mode="normal" in2="shape" result="effect1_innerShadow_1:2"/>
</filter>
<filter id="filter5_i_1:2" x="1243.8" y="138.044" width="29.1688" height="33.139" filterUnits="userSpaceOnUse" color-interpolation-filters="sRGB">
<feFlood flood-opacity="0" result="BackgroundImageFix"/>
<feBlend mode="normal" in="SourceGraphic" in2="BackgroundImageFix" result="shape"/>
<feColorMatrix in="SourceAlpha" type="matrix" values="0 0 0 0 0 0 0 0 0 0 0 0 0 0 0 0 0 0 127 0" result="hardAlpha"/>
<feOffset dy="10"/>
<feGaussianBlur stdDeviation="2"/>
<feComposite in2="hardAlpha" operator="arithmetic" k2="-1" k3="1"/>
<feColorMatrix type="matrix" values="0 0 0 0 0 0 0 0 0 0 0 0 0 0 0 0 0 0 0.25 0"/>
<feBlend mode="normal" in2="shape" result="effect1_innerShadow_1:2"/>
</filter>
<filter id="filter6_i_1:2" x="488.05" y="327.733" width="29.062" height="33.4779" filterUnits="userSpaceOnUse" color-interpolation-filters="sRGB">
<feFlood flood-opacity="0" result="BackgroundImageFix"/>
<feBlend mode="normal" in="SourceGraphic" in2="BackgroundImageFix" result="shape"/>
<feColorMatrix in="SourceAlpha" type="matrix" values="0 0 0 0 0 0 0 0 0 0 0 0 0 0 0 0 0 0 127 0" result="hardAlpha"/>
<feOffset dy="10"/>
<feGaussianBlur stdDeviation="2"/>
<feComposite in2="hardAlpha" operator="arithmetic" k2="-1" k3="1"/>
<feColorMatrix type="matrix" values="0 0 0 0 0 0 0 0 0 0 0 0 0 0 0 0 0 0 0.25 0"/>
<feBlend mode="normal" in2="shape" result="effect1_innerShadow_1:2"/>
</filter>
<filter id="filter7_i_1:2" x="1083.47" y="730" width="343.394" height="299.069" filterUnits="userSpaceOnUse" color-interpolation-filters="sRGB">
<feFlood flood-opacity="0" result="BackgroundImageFix"/>
<feBlend mode="normal" in="SourceGraphic" in2="BackgroundImageFix" result="shape"/>
<feColorMatrix in="SourceAlpha" type="matrix" values="0 0 0 0 0 0 0 0 0 0 0 0 0 0 0 0 0 0 127 0" result="hardAlpha"/>
<feOffset dy="4"/>
<feGaussianBlur stdDeviation="2"/>
<feComposite in2="hardAlpha" operator="arithmetic" k2="-1" k3="1"/>
<feColorMatrix type="matrix" values="0 0 0 0 0 0 0 0 0 0 0 0 0 0 0 0 0 0 0.25 0"/>
<feBlend mode="normal" in2="shape" result="effect1_innerShadow_1:2"/>
</filter>
<filter id="filter8_i_1:2" x="1069.14" y="955.213" width="35.3804" height="25.9523" filterUnits="userSpaceOnUse" color-interpolation-filters="sRGB">
<feFlood flood-opacity="0" result="BackgroundImageFix"/>
<feBlend mode="normal" in="SourceGraphic" in2="BackgroundImageFix" result="shape"/>
<feColorMatrix in="SourceAlpha" type="matrix" values="0 0 0 0 0 0 0 0 0 0 0 0 0 0 0 0 0 0 127 0" result="hardAlpha"/>
<feOffset dy="10"/>
<feGaussianBlur stdDeviation="2"/>
<feComposite in2="hardAlpha" operator="arithmetic" k2="-1" k3="1"/>
<feColorMatrix type="matrix" values="0 0 0 0 0 0 0 0 0 0 0 0 0 0 0 0 0 0 0.25 0"/>
<feBlend mode="normal" in2="shape" result="effect1_innerShadow_1:2"/>
</filter>
<clipPath id="clip0_1:2">
<rect width="1440" height="1024" fill="white"/>
</clipPath>
<clipPath id="clip1_1:2">
<rect width="36" height="39" fill="white" transform="translate(338.341 100) rotate(38.6187)"/>
</clipPath>
<clipPath id="clip2_1:2">
<rect width="36" height="39" fill="white" transform="translate(354.975 550.333) rotate(-29.4347)"/>
</clipPath>
<clipPath id="clip3_1:2">
<rect width="36.1432" height="41.7166" fill="white" transform="matrix(0.969591 0.244731 -0.214002 0.976833 666.423 671.814)"/>
</clipPath>
<clipPath id="clip4_1:2">
<rect width="34.0667" height="39.8229" fill="white" transform="matrix(0.807632 -0.589687 0.535292 0.844667 1066.68 567.453)"/>
</clipPath>
<clipPath id="clip5_1:2">
<rect width="34.0667" height="39.8228" fill="white" transform="matrix(0.807631 -0.589688 0.535292 0.844667 963 289.506)"/>
</clipPath>
<clipPath id="clip6_1:2">
<rect width="36.9751" height="40.852" fill="white" transform="matrix(0.778353 -0.627826 0.573517 0.819194 1228 145.579)"/>
</clipPath>
<clipPath id="clip7_1:2">
<rect width="37.0514" height="40.7708" fill="white" transform="matrix(0.759147 0.65092 -0.597027 0.802221 501.341 309.132)"/>
</clipPath>
<clipPath id="clip8_1:2">
<rect width="382" height="301" fill="white" transform="translate(1048 730)"/>
</clipPath>
</defs>
</svg>
