<svg width="382" height="301" viewBox="0 0 382 301" fill="none" xmlns="http://www.w3.org/2000/svg">
<g clip-path="url(#clip0_80:105)">
<g filter="url(#filter0_i_80:105)">
<path d="M138.77 100.538L109.845 63.1694M192.323 173.922L138.77 100.538L192.323 173.922ZM87.4976 38.5037L54.5749 21.6824L68.8094 71.4015L87.4976 38.5037ZM87.4976 38.5037L68.8094 71.4015L87.4976 38.5037ZM87.4976 38.5037L109.845 63.1694L87.4976 38.5037ZM68.8094 71.4015L155.59 187.398L167.468 139.863L129.039 152.113L138.77 100.538L68.8094 71.4015ZM68.8094 71.4015L109.845 63.1694L68.8094 71.4015ZM138.77 100.538L96.2606 108.551L109.845 63.1694L138.77 100.538Z" stroke="black" stroke-width="4" stroke-linejoin="bevel"/>
<path d="M313.499 117.439L329.166 99.3107M284.255 153.577L313.499 117.439L284.255 153.577ZM341.035 87.8868L357.424 83.0345L347.955 111.184L341.035 87.8868ZM341.035 87.8868L347.955 111.184L341.035 87.8868ZM341.035 87.8868L329.166 99.3107L341.035 87.8868ZM347.955 111.184L300.731 167.954L297.828 136.804L315.168 150.71L313.499 117.439L347.955 111.184ZM347.955 111.184L329.166 99.3107L347.955 111.184ZM313.499 117.439L332.991 129.422L329.166 99.3107L313.499 117.439Z" stroke="black" stroke-width="4"/>
<path d="M131.645 206.103H271.17V239.466H131.645V206.103Z" fill="#1E2F3F"/>
<path d="M116.744 232.052H315.195C330.157 232.052 342.287 245.329 342.287 261.707V265.414C342.287 281.792 330.157 295.069 315.195 295.069H116.744C101.782 295.069 89.6521 281.792 89.6521 265.414V261.707C89.6521 245.329 101.782 232.052 116.744 232.052Z" fill="#3A5976"/>
<path d="M279.298 121.586C279.298 117.492 276.265 114.172 272.524 114.172H181.558C179.545 114.172 177.635 115.153 176.348 116.85L121.223 189.505C117.557 194.336 120.696 201.655 126.433 201.655H272.524C276.265 201.655 279.298 198.336 279.298 194.241V121.586Z" fill="#3A5976"/>
<path d="M259.656 128.259C259.656 126.212 258.14 124.552 256.269 124.552H205.092C204.438 124.552 203.798 124.759 203.249 125.149L177.144 143.683C174.314 145.692 175.614 150.5 178.987 150.5H256.269C258.14 150.5 259.656 148.84 259.656 146.793V128.259Z" fill="#1E2F3F"/>
<path d="M259.656 160.879C259.656 159.242 258.443 157.914 256.946 157.914H169.889C169.196 157.914 168.53 158.204 168.026 158.726L137.263 190.605C135.484 192.449 136.675 195.724 139.125 195.724H256.946C258.443 195.724 259.656 194.396 259.656 192.759V160.879Z" fill="#1E2F3F"/>
<path d="M118.099 201.655H325.354V209.81H118.099V201.655Z" fill="#0B0A0A"/>
<path d="M295.553 180.155H348.383V188.31H295.553V180.155Z" fill="#0B0A0A"/>
<path d="M370.039 167.552C357.79 167.552 337.546 167.552 337.546 167.552V201.655C337.546 201.655 358.772 201.655 370.039 201.655C381.306 201.655 382.289 167.552 370.039 167.552Z" fill="#3A5976"/>
<path d="M321.757 158.368C315.266 148.631 286.646 152.43 275.57 154.316C273.001 154.753 271.17 157.188 271.17 160.034V196.466C271.17 199.741 273.596 202.397 276.588 202.397H317.639C320.073 202.397 322.201 200.63 322.733 198.03C324.608 188.874 328.005 167.739 321.757 158.368Z" fill="#3A5976"/>
<path d="M316.324 164.171H276.399" stroke="black" stroke-width="3"/>
<path d="M316.324 170.819H276.399" stroke="black" stroke-width="3"/>
<path d="M316.324 176.912H276.399" stroke="black" stroke-width="3"/>
<path d="M316.324 182.453H276.399" stroke="black" stroke-width="3"/>
<path d="M316.324 187.992H276.399" stroke="black" stroke-width="3"/>
<path d="M316.324 193.533H276.399" stroke="black" stroke-width="3"/>
<path d="M307.406 282.465C297.493 282.465 289.457 274.167 289.457 263.931C289.457 253.695 297.493 245.397 307.406 245.397C317.318 245.397 325.354 253.695 325.354 263.931C325.354 274.167 317.318 282.465 307.406 282.465Z" fill="#C4C4C4"/>
<path d="M307.406 282.465C297.493 282.465 289.457 274.167 289.457 263.931C289.457 253.695 297.493 245.397 307.406 245.397C317.318 245.397 325.354 253.695 325.354 263.931C325.354 274.167 317.318 282.465 307.406 282.465Z" fill="#C4C4C4"/>
<path d="M255.592 278.017C251.851 278.017 248.819 274.698 248.819 270.603C248.819 266.509 251.851 263.19 255.592 263.19C259.333 263.19 262.365 266.509 262.365 270.603C262.365 274.698 259.333 278.017 255.592 278.017Z" fill="#C4C4C4"/>
<path d="M227.145 278.017C223.404 278.017 220.372 274.698 220.372 270.603C220.372 266.509 223.404 263.19 227.145 263.19C230.886 263.19 233.918 266.509 233.918 270.603C233.918 274.698 230.886 278.017 227.145 278.017Z" fill="#C4C4C4"/>
<path d="M199.376 278.017C195.635 278.017 192.602 274.698 192.602 270.603C192.602 266.509 195.635 263.19 199.376 263.19C203.116 263.19 206.149 266.509 206.149 270.603C206.149 274.698 203.116 278.017 199.376 278.017Z" fill="#C4C4C4"/>
<path d="M174.315 278.017C170.575 278.017 167.542 274.698 167.542 270.603C167.542 266.509 170.575 263.19 174.315 263.19C178.056 263.19 181.088 266.509 181.088 270.603C181.088 274.698 178.056 278.017 174.315 278.017Z" fill="#C4C4C4"/>
<path d="M127.243 282.465C117.33 282.465 109.294 274.167 109.294 263.931C109.294 253.695 117.33 245.397 127.243 245.397C137.155 245.397 145.191 253.695 145.191 263.931C145.191 274.167 137.155 282.465 127.243 282.465Z" fill="#C4C4C4"/>
<path d="M52.4007 36.3276C43.0491 36.3276 35.4681 28.1954 35.4681 18.1638C35.4681 8.13221 43.0491 0 52.4007 0C61.7523 0 69.3333 8.13221 69.3333 18.1638C69.3333 28.1954 61.7523 36.3276 52.4007 36.3276Z" fill="#C4C4C4"/>
<path d="M52.7393 28.1724C48.0635 28.1724 44.273 23.6914 44.273 18.1638C44.273 12.6362 48.0635 8.15518 52.7393 8.15518C57.4152 8.15518 61.2057 12.6362 61.2057 18.1638C61.2057 23.6914 57.4152 28.1724 52.7393 28.1724Z" fill="black"/>
<path d="M358.881 93.4138C352.335 93.4138 347.028 87.6051 347.028 80.4397C347.028 73.2742 352.335 67.4655 358.881 67.4655C365.427 67.4655 370.734 73.2742 370.734 80.4397C370.734 87.6051 365.427 93.4138 358.881 93.4138Z" fill="#C4C4C4"/>
<path d="M359.22 87.4828C355.853 87.4828 353.124 84.3295 353.124 80.4397C353.124 76.5499 355.853 73.3965 359.22 73.3965C362.586 73.3965 365.315 76.5499 365.315 80.4397C365.315 84.3295 362.586 87.4828 359.22 87.4828Z" fill="black"/>
</g>
<line x1="37.5016" y1="201.96" x2="51.5016" y2="27.9599" stroke="black"/>
<path d="M349.443 74.1787L67.8749 9.80764M362.375 167.794L364.375 93.7941" stroke="black"/>
<g filter="url(#filter1_i_80:105)">
<path d="M27.3562 225.34L27.4516 247.138" stroke="#585656" stroke-opacity="0.77"/>
<path d="M33.0704 225.315L33.1658 247.113" stroke="#585656" stroke-opacity="0.77"/>
<path d="M21.642 225.365L21.7374 247.163" stroke="#585656" stroke-opacity="0.77"/>
<path d="M38.7846 225.29L38.8799 247.088" stroke="#585656" stroke-opacity="0.77"/>
<path d="M44.4987 225.265L44.5941 247.063" stroke="#585656" stroke-opacity="0.77"/>
<path d="M50.213 225.24L50.3083 247.038" stroke="#585656" stroke-opacity="0.77"/>
<path d="M55.9271 225.215L56.0225 247.013" stroke="#585656" stroke-opacity="0.77"/>
</g>
<path d="M22.6966 221.517C34.9248 207.799 41.939 207.883 54.7199 221.377" stroke="#808080" stroke-opacity="0.54"/>
<path d="M17.3232 225.645C17.3131 223.328 19.212 221.442 21.5646 221.431L55.1097 221.285C57.4623 221.274 59.3776 223.144 59.3878 225.461L59.4769 245.828C59.487 248.145 57.5881 250.031 55.2355 250.042L21.6903 250.188C19.3378 250.199 17.4224 248.329 17.4123 246.012L17.3232 225.645Z" fill="#BCBABA" fill-opacity="0.35"/>
<path d="M17.8232 225.643C17.8143 223.609 19.4831 221.94 21.5667 221.931L55.1119 221.785C57.1956 221.775 58.8789 223.43 58.8878 225.463L58.9769 245.83C58.9858 247.864 57.317 249.532 55.2333 249.542L21.6882 249.688C19.6045 249.697 17.9212 248.043 17.9123 246.01L17.8232 225.643Z" stroke="#585656" stroke-opacity="0.77"/>
<path d="M36.7968 203.765C37.0682 204.905 33.2695 210.294 35.2455 212.435C35.7708 214.641 38.2857 215.059 39.4197 214.777C40.5537 214.496 41.5334 213.773 42.1434 212.768C42.7533 211.763 42.9434 210.559 42.6719 209.419L41.6931 209.662C41.9024 210.541 41.2086 211.605 40.7384 212.38C40.2681 213.155 39.0288 212.805 38.1544 213.022C37.28 213.239 36.8143 212.046 36.5504 210.938C37.5245 206.82 41.4818 204.422 41.2725 203.543L36.7968 203.765Z" fill="#9A9292"/>
<ellipse cx="38.5" cy="200" rx="4.5" ry="4" fill="#C4C4C4"/>
</g>
<defs>
<filter id="filter0_i_80:105" x="35.4681" y="0" width="343.394" height="299.069" filterUnits="userSpaceOnUse" color-interpolation-filters="sRGB">
<feFlood flood-opacity="0" result="BackgroundImageFix"/>
<feBlend mode="normal" in="SourceGraphic" in2="BackgroundImageFix" result="shape"/>
<feColorMatrix in="SourceAlpha" type="matrix" values="0 0 0 0 0 0 0 0 0 0 0 0 0 0 0 0 0 0 127 0" result="hardAlpha"/>
<feOffset dy="4"/>
<feGaussianBlur stdDeviation="2"/>
<feComposite in2="hardAlpha" operator="arithmetic" k2="-1" k3="1"/>
<feColorMatrix type="matrix" values="0 0 0 0 0 0 0 0 0 0 0 0 0 0 0 0 0 0 0.25 0"/>
<feBlend mode="normal" in2="shape" result="effect1_innerShadow_80:105"/>
</filter>
<filter id="filter1_i_80:105" x="21.142" y="225.212" width="35.3804" height="25.9523" filterUnits="userSpaceOnUse" color-interpolation-filters="sRGB">
<feFlood flood-opacity="0" result="BackgroundImageFix"/>
<feBlend mode="normal" in="SourceGraphic" in2="BackgroundImageFix" result="shape"/>
<feColorMatrix in="SourceAlpha" type="matrix" values="0 0 0 0 0 0 0 0 0 0 0 0 0 0 0 0 0 0 127 0" result="hardAlpha"/>
<feOffset dy="10"/>
<feGaussianBlur stdDeviation="2"/>
<feComposite in2="hardAlpha" operator="arithmetic" k2="-1" k3="1"/>
<feColorMatrix type="matrix" values="0 0 0 0 0 0 0 0 0 0 0 0 0 0 0 0 0 0 0.25 0"/>
<feBlend mode="normal" in2="shape" result="effect1_innerShadow_80:105"/>
</filter>
<clipPath id="clip0_80:105">
<rect width="382" height="301" fill="white"/>
</clipPath>
</defs>
</svg>
